<svg version="1.1" id="Layer_1" xmlns="http://www.w3.org/2000/svg" xmlns:xlink="http://www.w3.org/1999/xlink" x="0px" y="0px"
	 width="100%" viewBox="0 0 516 275" enable-background="new 0 0 516 275" xml:space="preserve">
<path fill="#333230" opacity="1.000000" stroke="none" 
	d="
M307.000000,276.000000 
	C204.698853,276.000000 102.897697,276.000000 1.048273,276.000000 
	C1.048273,184.394501 1.048273,92.788979 1.048273,1.091726 
	C172.884460,1.091726 344.768982,1.091726 516.826782,1.091726 
	C516.826782,92.666412 516.826782,184.333176 516.826782,276.000000 
	C447.122406,276.000000 377.311188,276.000000 307.000000,276.000000 
M451.040344,178.999466 
	C446.762726,178.999466 442.485138,178.999466 437.953613,178.999466 
	C438.081268,177.014877 438.170990,175.619827 438.285583,173.838318 
	C444.397491,173.838318 450.159515,173.838318 455.846741,173.838318 
	C455.846741,171.608093 455.846741,169.798523 455.846741,167.546631 
	C447.469818,167.546631 439.257996,167.546631 430.539185,167.546631 
	C430.539185,175.789291 430.081543,183.920914 430.846130,191.935959 
	C431.049011,194.062744 434.828278,197.169998 437.278381,197.499329 
	C443.300812,198.308838 449.505280,197.764191 455.718536,197.764191 
	C455.718536,195.003433 455.718536,193.112915 455.718536,190.844330 
	C449.825806,190.844330 444.222931,190.844330 438.333008,190.844330 
	C438.333008,189.091660 438.333008,187.721512 438.333008,186.017899 
	C442.102753,186.017899 445.749847,186.161636 449.375885,185.947891 
	C450.848480,185.861099 453.519775,184.953735 453.503967,184.493256 
	C453.440735,182.652588 452.536041,180.840775 451.040344,178.999466 
M313.984741,195.748505 
	C313.051025,193.715378 311.861328,191.752823 311.274414,189.624069 
	C310.888855,188.225723 310.759064,185.881683 311.571167,185.174835 
	C315.823425,181.473511 313.995209,176.726242 313.588776,172.606522 
	C313.417267,170.868286 310.010773,168.296585 307.901611,168.115051 
	C301.173309,167.535904 294.363739,167.900314 287.469604,167.900314 
	C287.469604,177.879013 287.469604,187.392746 287.469604,196.854889 
	C290.136658,196.854889 292.400330,196.854889 295.039917,196.854889 
	C295.039917,193.495468 295.039917,190.396027 295.039917,187.472443 
	C300.272827,185.557632 302.375336,188.733734 303.937256,192.315491 
	C305.974792,196.987961 309.247437,198.206879 313.984741,195.748505 
M115.264862,197.040558 
	C117.914566,197.159485 118.650566,196.091156 117.265793,193.764511 
	C115.957436,191.566254 114.615395,189.388062 112.984703,186.700989 
	C118.310135,184.165146 118.688911,179.122314 117.630424,174.407364 
	C117.081696,171.963120 114.157043,168.510971 111.985916,168.257904 
	C105.154686,167.461563 98.171982,167.964569 91.279022,167.964569 
	C91.279022,177.967224 91.279022,187.370239 91.279022,196.754700 
	C93.637466,196.754700 95.709427,196.754700 98.209030,196.754700 
	C98.209030,193.392426 98.209030,190.302872 98.209030,187.406036 
	C103.071404,185.867157 105.593849,187.780075 107.439774,191.781906 
	C108.731651,194.582596 109.988167,198.111862 115.264862,197.040558 
M463.002045,194.481033 
	C464.998291,195.320786 466.935608,196.633911 469.004333,196.891632 
	C472.277893,197.299438 475.685974,196.651382 478.952362,197.086395 
	C483.284729,197.663376 486.044891,195.540085 487.790375,192.252274 
	C489.565582,188.908447 487.730011,182.111603 484.594543,180.292343 
	C482.778107,179.238419 480.274231,179.197083 478.056458,179.049545 
	C475.123596,178.854431 472.167969,179.001526 469.269653,179.001526 
	C469.269653,177.069656 469.269653,175.674713 469.269653,173.422760 
	C475.661285,174.352188 481.649048,175.222885 487.674591,176.099075 
	C487.818298,171.307510 485.089691,168.150696 481.033234,168.007645 
	C477.220734,167.873169 473.406982,167.765610 469.592957,167.683594 
	C464.249542,167.568710 461.053650,170.698456 460.999451,176.055283 
	C460.927155,183.199417 463.219147,185.957474 469.287598,185.991898 
	C472.742279,186.011490 476.197205,185.995438 479.789307,185.995438 
	C479.789307,187.822952 479.789307,189.219940 479.789307,191.585648 
	C473.360138,190.619568 467.290466,189.707504 460.172821,188.637970 
	C461.203339,191.087540 461.798401,192.502014 463.002045,194.481033 
M27.998083,170.758591 
	C27.998083,179.381378 27.998083,188.004166 27.998083,196.683014 
	C30.831888,196.683014 33.212734,196.683014 36.137398,196.683014 
	C36.137398,191.410187 36.137398,186.442596 36.137398,181.901016 
	C42.763962,186.075348 42.070770,198.145233 53.640457,196.963226 
	C53.640457,187.156296 53.640457,177.614471 53.640457,168.180450 
	C51.329163,168.180450 49.378075,168.180450 46.963680,168.180450 
	C46.963680,173.402390 46.963680,178.441391 46.963680,183.480392 
	C43.020977,179.437408 40.026787,175.072159 36.982056,170.742462 
	C34.477341,167.180695 30.599916,166.805328 27.998083,170.758591 
M377.080750,173.013687 
	C375.510284,171.323395 374.043579,168.306625 372.351257,168.174225 
	C365.314697,167.623795 358.210114,167.942825 351.249847,167.942825 
	C351.249847,178.010864 351.249847,187.424484 351.249847,196.793030 
	C353.640869,196.793030 355.713165,196.793030 358.208252,196.793030 
	C358.208252,193.416534 358.208252,190.321548 358.208252,187.275665 
	C363.923157,186.869415 364.083954,186.777267 366.630920,191.221512 
	C368.967712,195.299103 371.301880,198.859344 377.779877,196.200760 
	C376.222504,193.053833 374.693268,189.963715 373.162506,186.870544 
	C377.092041,182.152679 377.092041,182.152679 377.080750,173.013687 
M414.386475,167.939056 
	C411.054413,167.942963 407.574188,167.362442 404.442352,168.156311 
	C402.355255,168.685364 399.426422,170.996674 399.185455,172.816406 
	C398.179047,180.416092 398.535797,187.024124 410.017120,186.032486 
	C412.610352,185.808502 415.239471,185.999527 418.117920,185.999527 
	C417.913635,188.016891 417.771973,189.415512 417.551483,191.592484 
	C411.131195,190.680481 405.137878,189.829132 399.116272,188.973755 
	C398.971924,195.098526 400.747986,197.023499 406.146393,197.054932 
	C410.477814,197.080154 414.811096,197.121582 419.140717,197.026459 
	C422.870148,196.944534 424.736664,194.936676 425.035767,191.183212 
	C425.740936,182.335602 423.524078,178.021988 413.430145,178.967926 
	C411.011963,179.194550 408.554443,179.001572 405.857330,179.001572 
	C406.065887,176.936432 406.207489,175.534164 406.423767,173.392593 
	C412.836151,174.300079 418.821777,175.147186 424.831665,175.997711 
	C425.021454,169.131073 423.558594,167.971680 414.386475,167.939056 
M225.004822,175.558838 
	C225.004822,173.108505 225.004822,170.658173 225.004822,168.130905 
	C222.428162,168.130905 220.352936,168.130905 217.687225,168.130905 
	C217.687225,173.323898 217.687225,178.298050 217.687225,184.688263 
	C214.145554,179.722580 211.080948,176.217834 208.944763,172.217316 
	C206.611252,167.847260 203.483765,167.175339 199.247986,168.313095 
	C199.247986,177.902191 199.247986,187.326996 199.247986,196.864517 
	C201.585510,196.864517 203.664642,196.864517 206.229889,196.864517 
	C206.229889,191.612793 206.229889,186.572601 206.229889,181.532425 
	C209.958862,185.182053 213.077469,188.950928 215.419388,193.152695 
	C217.740204,197.316620 220.834717,197.662033 225.004486,196.706360 
	C225.004486,189.836884 225.004486,183.189896 225.004822,175.558838 
M64.178314,168.019333 
	C60.930202,169.466949 59.734325,171.893250 59.917896,175.484894 
	C60.180542,180.623566 59.926792,185.786652 59.990070,190.938141 
	C60.038570,194.886734 62.131893,196.958893 66.093315,197.006958 
	C69.915459,197.053314 73.738625,197.029755 77.561272,197.017349 
	C83.219597,196.998978 85.978493,194.288284 85.997047,188.722931 
	C86.011452,184.401688 86.026947,180.080093 85.990669,175.759079 
	C85.949821,170.894211 82.998619,168.015244 78.037178,167.986832 
	C73.716049,167.962097 69.394623,167.989487 64.178314,168.019333 
M319.221405,168.820038 
	C319.221405,178.089417 319.221405,187.358810 319.221405,196.798370 
	C322.010132,196.798370 324.386383,196.798370 327.147400,196.798370 
	C327.147400,194.091919 327.147400,191.681808 327.147400,189.005310 
	C330.502167,189.005310 333.499146,189.258987 336.427704,188.920486 
	C338.552277,188.674896 340.920288,188.096710 342.586182,186.864441 
	C345.432739,184.758804 346.480682,173.422241 344.091980,170.815994 
	C342.803345,169.410004 340.623383,168.122498 338.789734,168.041275 
	C332.490021,167.762177 326.165649,168.039062 319.221405,168.820038 
M176.105164,174.603638 
	C181.831696,174.288025 187.558228,173.972427 193.435013,173.648544 
	C193.435013,171.777344 193.435013,170.051071 193.435013,168.274597 
	C185.121017,168.274597 177.080856,168.274597 168.884537,168.274597 
	C168.884537,176.126511 168.576111,183.631516 169.084488,191.080795 
	C169.225296,193.144333 171.643387,196.588226 173.273178,196.745804 
	C179.964249,197.392715 186.754272,197.016144 193.754623,197.016144 
	C193.638184,194.590775 193.555313,192.864746 193.454071,190.756210 
	C187.318909,190.756210 181.722260,190.756210 175.930008,190.756210 
	C176.046951,188.729691 176.139267,187.129959 176.258316,185.066925 
	C181.292526,185.066925 186.038284,185.066925 191.097458,185.066925 
	C190.980896,183.014511 190.893066,181.467682 190.790604,179.663361 
	C185.695419,179.663361 181.074844,179.663361 176.202026,179.663361 
	C176.124298,178.103607 176.060120,176.815872 176.105164,174.603638 
M272.589203,185.251160 
	C274.686890,185.251160 276.784576,185.251160 279.222046,185.251160 
	C279.116180,183.059067 279.041138,181.505051 278.956207,179.745956 
	C275.370392,179.745956 272.208466,179.537598 269.085388,179.796951 
	C264.866333,180.147324 263.126251,178.712509 264.556854,173.983490 
	C270.173462,173.983490 275.928192,173.983490 281.779694,173.983490 
	C281.779694,171.777451 281.779694,170.034210 281.779694,168.096725 
	C273.498962,168.096725 265.437103,168.096725 256.945496,168.096725 
	C256.945496,175.921555 256.528778,183.569244 257.210266,191.117767 
	C257.403931,193.262985 260.613770,196.566605 262.753998,196.834534 
	C268.940369,197.609055 275.286438,197.108444 281.638611,197.108444 
	C281.638611,194.828491 281.638611,192.978424 281.638611,190.971832 
	C278.464111,190.971832 275.645172,190.971817 272.826263,190.971817 
	C270.032898,190.971817 267.239532,190.971832 264.497650,190.971832 
	C263.959473,185.257187 263.959473,185.257187 272.589203,185.251160 
M135.570572,188.995560 
	C136.403275,188.996887 137.235992,188.998840 138.068695,188.999481 
	C147.999832,189.007019 152.979004,181.374039 148.650436,172.287201 
	C147.773972,170.447250 145.347870,168.293930 143.498230,168.157654 
	C136.775696,167.662384 129.994598,167.962250 123.282272,167.962250 
	C123.282272,177.982986 123.282272,187.394440 123.282272,196.766602 
	C125.656639,196.766602 127.732681,196.766602 129.921005,196.766602 
	C130.060165,194.085281 130.185257,191.675156 130.324356,188.995285 
	C132.008301,188.995285 133.317596,188.995285 135.570572,188.995560 
M185.426529,111.960007 
	C197.515320,109.388878 209.577316,107.739128 221.802368,111.464439 
	C224.396973,112.255081 227.356705,111.847588 230.148209,111.992104 
	C230.198227,111.470558 230.248245,110.949005 230.298279,110.427460 
	C222.572296,108.452957 214.846329,106.478455 207.238525,104.534157 
	C207.021912,102.265915 206.840805,100.369598 206.658340,98.458878 
	C204.721558,98.707550 203.288559,98.844757 201.872223,99.081589 
	C196.141998,100.039787 190.413147,101.007431 184.691116,102.013115 
	C180.336304,102.778503 181.110062,106.319740 181.347763,109.100441 
	C181.436432,110.137840 183.421875,111.013107 185.426529,111.960007 
M249.162903,167.864624 
	C242.431015,167.864624 235.699127,167.864624 229.035355,167.864624 
	C229.035355,170.314865 229.035355,172.067856 229.035355,174.143723 
	C231.766464,174.143723 234.200302,174.143723 237.017883,174.143723 
	C237.017883,181.881058 237.017883,189.302048 237.017883,196.731354 
	C239.780716,196.731354 242.133652,196.731354 244.947388,196.731354 
	C244.947388,188.951843 244.947388,181.578842 244.947388,173.963715 
	C247.876099,173.963715 250.329956,173.963715 253.948685,173.963715 
	C251.949722,171.727310 255.761032,167.591751 249.162903,167.864624 
M274.417603,142.000458 
	C277.199829,142.000458 279.982025,142.000458 282.764252,142.000458 
	C282.759705,141.514694 282.755188,141.028931 282.750641,140.543182 
	C274.922546,139.747849 267.094452,138.952499 259.272888,138.157837 
	C259.034607,136.269043 258.815887,134.535477 258.550537,132.432098 
	C250.243454,132.432098 242.240479,132.432098 234.318726,132.432098 
	C234.318726,135.680084 234.318726,138.737946 234.318726,142.000809 
	C247.569763,142.000809 260.502869,142.000809 274.417603,142.000458 
M272.710999,126.004936 
	C275.919647,126.004936 279.128296,126.004936 282.336945,126.004936 
	C282.355286,125.717964 282.373627,125.430992 282.391968,125.144020 
	C274.586884,124.087654 266.781799,123.031288 259.191986,122.004059 
	C258.997162,119.438484 258.863739,117.681694 258.711151,115.672279 
	C250.355057,116.317215 242.390335,116.931946 234.292831,117.556923 
	C234.292831,120.452911 234.292831,123.672478 234.292831,127.180962 
	C238.648697,126.563332 242.670197,125.561951 246.703659,125.511124 
	C255.056610,125.405853 263.415955,125.806000 272.710999,126.004936 
M384.002258,188.224289 
	C383.261261,191.025146 382.520233,193.826004 381.750183,196.736603 
	C386.455231,196.736603 390.193237,196.736603 394.551208,196.736603 
	C390.610382,187.066895 391.268921,177.667435 394.267670,168.174698 
	C389.745422,168.174698 385.997864,168.174698 382.832123,168.174698 
	C383.231537,174.701599 383.616516,180.992477 384.002258,188.224289 
M258.500977,108.000542 
	C266.555328,109.265053 274.609680,110.529564 282.664062,111.794075 
	C282.744232,111.460968 282.824432,111.127861 282.904633,110.794754 
	C274.964386,108.976639 267.024139,107.158516 259.227234,105.373222 
	C259.034210,102.938194 258.881134,101.007187 258.724152,99.027000 
	C250.246567,100.478271 242.094406,101.873833 234.200378,103.225204 
	C234.200378,106.526833 234.200378,109.161530 234.200378,111.878479 
	C242.142502,110.562286 249.871384,109.281425 258.500977,108.000542 
M216.056137,123.625725 
	C212.750504,122.988869 209.444855,122.352013 206.303543,121.746811 
	C206.191101,119.417145 206.113327,117.805885 206.011871,115.703819 
	C197.816772,116.449516 189.961258,117.164322 182.313721,117.860199 
	C182.313721,121.431313 182.313721,124.174568 182.313721,125.717049 
	C197.894302,125.717049 213.137878,125.717049 228.381454,125.717049 
	C228.392426,125.523323 228.403381,125.329605 228.414352,125.135880 
	C224.586990,124.684410 220.759628,124.232933 216.056137,123.625725 
M254.414871,91.788155 
	C257.980621,91.945763 261.627380,91.686111 265.093170,92.358826 
	C270.282898,93.366165 275.345490,95.028656 280.462158,96.412498 
	C280.575317,95.998474 280.688446,95.584442 280.801605,95.170418 
	C275.859009,93.699867 270.891785,92.306175 265.981506,90.734680 
	C261.982239,89.454765 256.926941,88.977058 259.276154,82.094131 
	C250.443771,84.411285 242.398605,86.521912 234.191452,88.675041 
	C234.191452,91.392387 234.191452,94.001968 234.191452,97.210960 
	C240.832382,95.426308 247.216553,93.710655 254.414871,91.788155 
M321.840454,125.908760 
	C325.659088,125.908760 329.477722,125.908760 333.296387,125.908760 
	C333.308777,125.657066 333.321167,125.405380 333.333557,125.153687 
	C325.938385,124.110138 318.543182,123.066582 310.908112,121.989182 
	C310.908112,119.728424 310.908112,117.951866 310.908112,115.635857 
	C302.742767,116.379295 294.955292,117.088333 287.190735,117.795280 
	C287.190735,120.896828 287.190735,123.307556 287.190735,125.904884 
	C291.090393,125.904884 294.722687,125.944801 298.353851,125.896568 
	C305.896545,125.796379 313.438629,125.649460 321.840454,125.908760 
M233.991959,61.742374 
	C233.991959,63.791969 233.991959,65.841560 233.991959,67.987686 
	C241.452240,64.926430 248.161133,61.927883 255.066269,59.483711 
	C257.251709,58.710152 260.107025,58.906818 262.398285,59.561153 
	C266.260193,60.664051 269.916473,62.487034 273.659241,64.007156 
	C273.812347,63.605968 273.965454,63.204781 274.118530,62.803593 
	C273.352661,62.469372 272.450500,62.294720 271.842621,61.775524 
	C267.242188,57.846191 257.475586,59.600021 258.818085,49.063969 
	C251.160660,52.332066 244.036942,55.318848 236.973328,58.441628 
	C235.842834,58.941410 234.981476,60.049961 233.991959,61.742374 
M315.981781,106.565315 
	C314.413940,106.107269 312.846130,105.649223 311.194183,105.166603 
	C311.045074,103.079941 310.906433,101.139458 310.760345,99.094749 
	C302.669403,100.457573 294.824371,101.778976 287.089752,103.081779 
	C287.089752,106.330078 287.089752,108.955338 287.089752,111.729828 
	C294.846313,110.458939 302.390991,108.321686 309.958252,108.238380 
	C317.404053,108.156418 324.872772,110.157768 332.331451,111.244972 
	C332.388672,110.890785 332.445892,110.536598 332.503113,110.182411 
	C327.267853,109.053093 322.032623,107.923767 315.981781,106.565315 
M330.191406,94.023552 
	C325.538544,92.577393 320.969452,90.649292 316.209045,89.821602 
	C311.517548,89.005920 310.184692,86.613228 311.033783,82.096214 
	C305.135010,83.696739 299.609619,85.183235 294.091492,86.696297 
	C286.571014,88.758408 286.573395,88.767090 287.213226,96.758705 
	C292.298370,95.478134 297.409119,94.414131 302.374329,92.879333 
	C307.552887,91.278580 312.471558,90.438965 317.847198,92.489265 
	C322.469238,94.252129 327.454956,95.061493 332.279846,96.292473 
	C332.340454,96.006195 332.401031,95.719925 332.461639,95.433647 
	C331.939148,95.080887 331.416656,94.728119 330.191406,94.023552 
M295.729553,79.146637 
	C296.980164,78.765526 298.253479,78.445763 299.477570,77.992989 
	C305.838440,75.640205 312.124054,73.487373 318.873199,77.005165 
	C321.229645,78.233398 324.010498,78.647377 326.597534,79.433212 
	C326.732605,79.041000 326.867676,78.648781 327.002747,78.256569 
	C321.743896,76.196304 316.485077,74.136040 311.197754,72.064606 
	C311.040802,69.947861 310.896820,68.006020 310.726196,65.704956 
	C302.277374,68.574524 294.116913,71.346161 286.310211,73.997650 
	C286.310211,77.090439 286.310211,79.494019 286.310211,82.353600 
	C289.495056,81.342918 292.272614,80.461487 295.729553,79.146637 
M250.842499,68.310936 
	C247.119263,69.549988 243.390106,70.771622 239.674088,72.031960 
	C233.207352,74.225220 232.959961,74.733925 234.779160,82.138893 
	C238.935059,80.773682 243.118958,79.524834 247.211517,78.026474 
	C253.944214,75.561508 260.594788,73.549294 267.633118,77.131546 
	C269.733887,78.200760 272.165466,78.619896 274.445496,79.336884 
	C274.562592,78.953461 274.679688,78.570038 274.796783,78.186615 
	C271.757050,77.066849 268.714661,75.954239 265.678223,74.825577 
	C261.633301,73.322044 256.896210,72.371262 259.459076,65.552849 
	C256.226868,66.560234 253.902634,67.284630 250.842499,68.310936 
M187.200226,95.967957 
	C197.242615,92.531593 207.280136,89.052811 218.153198,93.140038 
	C213.685089,89.378807 204.907776,91.818840 205.823105,82.250877 
	C199.767792,83.890259 194.104126,85.642853 188.336746,86.931023 
	C180.661621,88.645294 180.156158,89.171089 181.541061,96.804260 
	C183.144928,96.537926 184.748169,96.271698 187.200226,95.967957 
M310.419281,141.096970 
	C313.433655,141.096970 316.447998,141.096970 319.462372,141.096970 
	C319.511505,140.633789 319.560669,140.170609 319.609802,139.707428 
	C316.860962,139.252106 314.112122,138.796768 311.186676,138.312180 
	C311.046600,136.462387 310.913788,134.708847 310.745972,132.492645 
	C302.484131,132.492645 294.495209,132.492645 286.309540,132.492645 
	C286.309540,135.391708 286.309540,138.084091 286.309540,141.094391 
	C294.230682,141.094391 301.836487,141.094391 310.419281,141.096970 
M184.699097,132.930496 
	C179.023224,134.049744 183.464340,138.132202 181.882370,140.637115 
	C190.920761,140.637115 199.387680,140.637115 207.613297,140.637115 
	C206.833893,137.866959 206.164276,135.487030 205.439072,132.909531 
	C198.909409,132.909531 192.288834,132.909531 184.699097,132.930496 
M82.928322,226.406921 
	C82.847565,224.890091 82.403969,223.282776 82.755310,221.873688 
	C83.739616,217.926010 82.102081,216.652771 78.428360,216.981125 
	C77.013153,217.107605 75.591682,217.164093 74.344582,217.241776 
	C74.344582,221.038620 74.344582,224.434433 74.344582,228.381058 
	C77.301353,227.891373 79.838387,227.471191 82.928322,226.406921 
M114.610283,217.979187 
	C108.909775,220.147583 113.523506,224.536972 111.921799,227.666519 
	C121.691093,228.473984 122.102341,227.984940 120.395065,217.977402 
	C118.817398,217.977402 117.185097,217.977402 114.610283,217.979187 
M426.410675,220.927002 
	C424.909668,219.544067 423.408661,218.161118 421.244751,216.167435 
	C421.244751,220.771164 421.244751,224.285736 421.244751,228.182098 
	C423.543884,226.669205 425.520752,225.368378 426.932861,224.439163 
	C428.123291,225.982788 428.986481,227.102066 430.567108,229.151642 
	C430.567108,224.021149 430.567108,220.542664 430.567108,217.064163 
	C430.211517,216.927795 429.855957,216.791443 429.500366,216.655075 
	C428.647980,217.891281 427.795624,219.127487 426.410675,220.927002 
M389.849121,227.336914 
	C390.275513,227.495010 391.064392,227.816116 391.076996,227.788116 
	C393.127563,223.228073 395.225861,224.635300 397.701660,228.813385 
	C397.701660,224.572739 397.701660,221.435715 397.701660,218.313141 
	C388.852295,217.364655 388.787659,217.420166 389.048981,225.782669 
	C389.059113,226.106125 389.176117,226.426239 389.849121,227.336914 
M322.642914,226.885941 
	C322.769653,225.912872 322.976379,224.942444 323.008423,223.966263 
	C323.112122,220.807083 323.769562,217.725754 318.562195,217.760849 
	C313.518433,217.794846 313.847015,220.659103 314.000092,223.932358 
	C314.060974,225.233582 314.135498,226.534180 314.208008,227.915039 
	C317.006042,228.764191 318.709839,221.359741 322.642914,226.885941 
M356.010254,220.379654 
	C353.995087,215.516083 350.228271,218.845261 347.409058,218.098282 
	C347.409058,221.509567 347.409058,224.501068 347.409058,228.928436 
	C348.867706,226.402145 349.587067,225.156265 350.523071,223.535187 
	C352.195251,225.063858 353.559021,226.310562 355.114227,227.732269 
	C355.486877,225.032394 355.751312,223.116638 356.010254,220.379654 
M372.006866,226.651199 
	C372.006866,223.782608 372.006866,220.914001 372.006866,218.269516 
	C368.899323,218.269516 366.514893,218.269516 363.809753,218.269516 
	C363.973816,221.706696 364.119568,224.760345 364.265350,227.813995 
	C366.929779,221.683563 369.375305,226.300949 372.006866,226.651199 
M239.300690,224.064117 
	C240.666916,225.160294 242.033157,226.256485 243.728836,227.617004 
	C243.964279,224.285782 245.255112,220.674316 244.048721,219.366608 
	C242.554901,217.747345 238.990173,218.038589 235.767456,217.393921 
	C235.954498,221.393326 236.089172,224.272964 236.223846,227.152588 
	C236.611282,227.168793 236.998718,227.184998 237.386154,227.201202 
	C237.751205,226.200485 238.116272,225.199783 239.300690,224.064117 
M134.637054,225.916489 
	C135.551300,226.595169 136.465561,227.273834 137.495361,228.038300 
	C137.495361,224.251083 137.495361,221.141235 137.495361,218.031387 
	C137.145584,218.006302 136.795807,217.981232 136.446030,217.956161 
	C136.173370,219.472458 135.900696,220.988754 135.595291,222.687164 
	C133.570267,220.802399 131.810532,219.164551 129.358551,216.882416 
	C129.358551,221.307877 129.358551,224.182663 129.358551,227.057434 
	C129.748993,227.195389 130.139450,227.333328 130.529892,227.471268 
	C131.256592,226.131714 131.983307,224.792175 132.815430,223.258286 
	C133.319748,224.009872 133.755310,224.658981 134.637054,225.916489 
M433.026947,224.954849 
	C435.119598,229.403793 438.581116,227.844223 441.999847,226.530777 
	C440.000854,226.162323 438.001831,225.793884 436.002838,225.425430 
	C436.011841,225.137009 436.020844,224.848572 436.029846,224.560150 
	C437.698822,224.171036 439.367798,223.781921 441.036774,223.392807 
	C441.032745,223.112442 441.028717,222.832077 441.024719,222.551727 
	C439.342224,222.149490 437.659760,221.747269 435.977295,221.345032 
	C435.992981,221.047546 436.008636,220.750061 436.024323,220.452560 
	C438.020569,220.129486 440.016785,219.806396 442.013031,219.483307 
	C441.968933,219.133118 441.924835,218.782913 441.880737,218.432709 
	C438.972931,218.432709 436.065125,218.432709 433.000458,218.432709 
	C433.000458,220.436554 433.000458,222.252747 433.026947,224.954849 
M277.051208,219.939835 
	C277.112915,220.928177 277.070465,221.937119 277.260773,222.900040 
	C277.543945,224.332932 277.991577,225.733322 278.369232,227.147537 
	C279.203125,225.918655 280.037018,224.689789 280.762085,223.621292 
	C282.141174,224.893219 283.605286,226.243576 285.069427,227.593933 
	C285.429596,227.339279 285.789764,227.084641 286.149933,226.829987 
	C285.991272,223.871353 285.832611,220.912720 285.673920,217.954086 
	C285.176697,217.975189 284.679474,217.996292 284.182281,218.017410 
	C284.021820,219.458359 283.861359,220.899323 283.587402,223.359421 
	C282.279877,221.449432 281.779846,220.036560 280.793610,219.470016 
	C279.804413,218.901764 278.330292,219.177597 277.051208,219.939835 
M207.211853,225.815109 
	C205.560318,223.547409 209.363495,219.255936 204.298248,217.635147 
	C204.298248,221.109436 204.298248,223.993744 204.298248,226.839874 
	C213.433609,227.758041 214.644165,226.343506 211.620575,217.861801 
	C210.793289,219.133011 210.580551,220.585861 210.067795,221.923721 
	C209.538284,223.305344 208.717056,224.575180 207.211853,225.815109 
M250.443710,225.733521 
	C250.536270,225.147949 250.487427,224.133652 250.745087,224.048660 
	C252.088257,223.605698 253.509354,223.399063 254.903336,223.110184 
	C254.845505,222.849380 254.787674,222.588593 254.729843,222.327789 
	C252.992722,221.916351 251.255600,221.504913 249.518478,221.093491 
	C249.570206,220.833450 249.621918,220.573425 249.673630,220.313400 
	C251.497635,220.024048 253.321625,219.734695 255.145630,219.445343 
	C255.083130,219.049194 255.020630,218.653030 254.958115,218.256882 
	C252.366821,218.256882 249.775528,218.256882 247.196625,218.256882 
	C246.665085,227.897354 248.253983,229.595551 256.547424,226.361588 
	C253.834595,226.101242 252.539749,225.976990 250.443710,225.733521 
M146.258911,227.685196 
	C147.440994,226.122986 148.623093,224.560791 150.416214,222.191055 
	C147.466858,222.191055 146.374756,222.191055 144.979813,222.191055 
	C145.773956,223.447739 146.389603,224.421982 147.315796,225.887665 
	C145.522842,225.784973 144.339798,225.717209 143.243607,225.654419 
	C143.243607,223.414978 143.243607,221.627975 143.243607,219.854340 
	C145.314133,219.738617 147.162933,219.635284 149.011719,219.531967 
	C148.973190,219.127762 148.934677,218.723557 148.896164,218.319351 
	C146.280945,218.319351 143.665726,218.319351 141.029633,218.319351 
	C141.029633,221.341064 141.029633,223.973206 141.029633,226.943054 
	C142.560669,227.186432 143.986084,227.413010 146.258911,227.685196 
M93.967407,226.049103 
	C93.967407,223.378464 93.967407,220.707825 93.967407,218.037186 
	C93.511307,218.064484 93.055199,218.091782 92.599098,218.119080 
	C91.049850,225.732758 91.049850,225.732758 88.287315,225.408401 
	C88.012367,222.925583 87.737411,220.442764 87.462456,217.959946 
	C86.836327,218.043335 86.210205,218.126724 85.584084,218.210098 
	C86.105026,221.296463 86.293152,224.515503 87.426277,227.357819 
	C87.654305,227.929810 91.469330,227.071793 93.967407,226.049103 
M272.307556,227.196411 
	C276.825165,226.327759 274.626556,222.756912 274.805786,220.339264 
	C274.860657,219.599182 272.972504,218.080994 271.909424,218.018387 
	C269.355774,217.867981 266.093872,216.743347 265.914246,221.552002 
	C265.756012,225.788986 266.824127,227.983398 272.307556,227.196411 
M340.607086,221.904327 
	C338.140198,220.914429 338.289124,219.879974 340.708038,219.225281 
	C341.884033,218.907028 343.217438,219.170273 344.479584,219.170273 
	C344.457367,218.753082 344.435150,218.335876 344.412903,217.918686 
	C343.112488,217.918686 341.811127,217.886932 340.511963,217.927216 
	C339.081085,217.971588 337.652222,218.082123 336.272186,218.160995 
	C335.574951,227.651413 336.138275,228.197571 345.500854,226.418335 
	C342.718170,226.010544 340.804260,225.730057 338.890381,225.449585 
	C338.850555,224.990051 338.810760,224.530518 338.770935,224.070984 
	C340.408081,223.575943 342.045197,223.080917 344.358582,222.381409 
	C342.954803,222.152588 342.195587,222.028824 340.607086,221.904327 
M166.614700,224.359314 
	C166.934265,225.296021 167.253845,226.232742 167.573425,227.169449 
	C167.916458,227.083801 168.259476,226.998154 168.602509,226.912521 
	C168.901169,225.713120 169.199814,224.513733 169.819733,222.024139 
	C171.731903,224.262619 172.985214,225.729797 174.577621,227.593948 
	C174.577621,224.132553 174.577621,221.116898 174.577621,217.556061 
	C173.081848,219.376083 172.035202,220.649597 170.988556,221.923111 
	C169.956970,220.649658 168.925385,219.376190 167.181946,217.223969 
	C166.992767,219.810440 166.859543,221.632004 166.614700,224.359314 
M227.657745,225.780289 
	C227.220306,223.153534 226.782867,220.526779 226.345428,217.900024 
	C225.982864,217.958786 225.620300,218.017548 225.257736,218.076309 
	C225.257736,221.036804 225.257736,223.997299 225.257736,226.818588 
	C228.061401,226.818588 230.446625,226.818588 233.213120,226.818588 
	C233.025040,223.564453 232.862595,220.753738 232.700150,217.943024 
	C232.132797,217.974762 231.565445,218.006500 230.998093,218.038239 
	C230.998093,219.784668 231.283997,221.598923 230.891678,223.252258 
	C230.653427,224.256317 229.367188,225.011719 227.657745,225.780289 
M97.057121,217.450577 
	C96.897827,220.818375 96.738533,224.186157 96.556747,228.029648 
	C97.813377,227.862411 99.253433,227.670761 100.090790,227.559311 
	C100.090790,224.417847 100.314903,222.003174 99.982620,219.667694 
	C99.846001,218.707443 98.511032,217.917694 97.057121,217.450577 
M291.231842,223.802429 
	C292.754272,223.434738 294.276733,223.067062 296.572479,222.512619 
	C294.183105,221.994492 292.579468,221.646744 290.975861,221.298996 
	C290.919617,220.845490 290.863373,220.391998 290.807129,219.938507 
	C292.759949,219.540924 294.712799,219.143326 296.665619,218.745728 
	C296.646027,218.557739 296.626434,218.369736 296.606842,218.181732 
	C294.123901,218.181732 291.640930,218.181732 289.083923,218.181732 
	C289.083923,221.192505 289.083923,223.926804 289.083923,226.833908 
	C291.728912,226.833908 294.112549,226.833908 297.280548,226.833908 
	C294.650696,225.897827 292.852295,225.257690 291.231842,223.802429 
M181.796173,219.154831 
	C183.022537,219.154831 184.248917,219.154831 185.475281,219.154831 
	C185.448608,218.843384 185.421951,218.531952 185.395294,218.220505 
	C183.001343,218.220505 180.607391,218.220505 178.184052,218.220505 
	C178.184052,221.247253 178.184052,223.979477 178.184052,226.921356 
	C180.851715,226.921356 183.246094,226.921356 185.640472,226.921356 
	C185.659012,226.736008 185.677536,226.550644 185.696060,226.365295 
	C183.791321,226.057343 181.886597,225.749405 179.981857,225.441452 
	C179.932358,225.021149 179.882858,224.600861 179.833359,224.180557 
	C181.443939,223.632523 183.054504,223.084488 184.665512,222.529160 
	C180.445892,221.643402 180.445892,221.643402 181.796173,219.154831 
M331.100616,219.403152 
	C330.622772,220.174683 330.144958,220.946198 329.916687,221.314758 
	C328.491272,219.998215 327.200775,218.806274 325.910248,217.614334 
	C325.656616,217.892090 325.402985,218.169846 325.149353,218.447601 
	C326.683624,221.377884 328.217926,224.308167 329.920166,227.559219 
	C331.450684,224.207413 332.778259,221.300003 334.595184,217.320953 
	C332.879181,218.218063 332.247284,218.548401 331.100616,219.403152 
M378.438477,227.765106 
	C379.309906,224.575134 380.181305,221.385162 380.995178,218.405930 
	C379.522491,218.405930 376.813477,218.405930 374.931671,218.405930 
	C375.686401,220.436493 376.424866,222.145386 376.945068,223.918320 
	C377.306061,225.148636 377.366608,226.467102 378.438477,227.765106 
M157.173248,217.986252 
	C157.021973,218.051804 156.859451,218.100143 156.723373,218.188965 
	C156.633209,218.247787 156.580933,218.364624 156.511703,218.455490 
	C159.791656,219.351334 158.782211,222.025192 159.064819,224.267746 
	C159.188110,225.246231 160.123596,226.122391 160.690277,227.045013 
	C161.116608,226.150986 161.659561,225.292542 161.945465,224.355667 
	C162.578796,222.280319 163.083038,220.165558 163.672318,217.944794 
	C162.264145,217.944794 160.135437,217.944794 157.173248,217.986252 
M410.057495,221.965286 
	C411.104736,220.852814 412.151947,219.740356 413.429596,218.383118 
	C410.486694,218.383118 407.796814,218.383118 406.309662,218.383118 
	C407.210663,221.772598 408.045258,224.912155 408.879852,228.051712 
	C409.283661,228.011459 409.687500,227.971191 410.091339,227.930923 
	C410.091339,226.225464 410.091339,224.519989 410.057495,221.965286 
M193.903244,221.524475 
	C194.045883,223.389618 194.188522,225.254761 194.287216,226.545303 
	C196.647110,224.808456 198.520157,223.429916 200.152481,222.228561 
	C199.126663,222.003357 197.538803,221.654755 195.950958,221.306168 
	C195.908508,220.839325 195.866058,220.372482 195.823608,219.905640 
	C197.782303,219.506165 199.740997,219.106689 201.699707,218.707214 
	C199.083221,219.233398 195.117249,215.087967 193.903244,221.524475 
M102.942368,220.651642 
	C102.919960,228.235718 104.614426,229.707870 110.335976,226.459915 
	C108.329727,226.094406 106.691406,225.795929 104.646622,225.423386 
	C104.646622,222.788376 104.646622,220.417465 104.646622,218.046539 
	C104.348900,217.996841 104.051178,217.947159 103.753464,217.897461 
	C103.481369,218.512894 103.209274,219.128311 102.942368,220.651642 
M417.994751,222.563568 
	C418.196136,221.168549 418.397552,219.773529 418.642639,218.075806 
	C417.468384,218.132477 416.270203,218.190308 415.520538,218.226486 
	C415.520538,221.558441 415.520538,224.515945 415.520538,227.729614 
	C416.354340,227.729614 417.558929,227.729614 418.858032,227.729614 
	C418.541565,226.126404 418.272491,224.763184 417.994751,222.563568 
M126.788475,226.252121 
	C126.595642,223.619339 126.402809,220.986557 126.195892,218.161499 
	C125.522858,218.161499 124.438545,218.161499 123.628738,218.161499 
	C123.628738,221.305069 123.628738,224.238327 123.628738,227.571152 
	C124.675041,227.389221 125.722839,227.207047 126.788475,226.252121 
M219.993698,224.482117 
	C220.510666,222.365860 221.027618,220.249588 221.554398,218.093155 
	C220.157654,218.093155 217.737030,218.093155 216.285645,218.093155 
	C216.810547,220.479645 217.235153,222.775665 217.854187,225.018005 
	C218.059036,225.759979 218.764801,226.363647 219.241531,227.030563 
	C219.490707,226.479263 219.739883,225.927948 219.993698,224.482117 
z"/>
<path fill="#F6F6F6" opacity="1.000000" stroke="none" 
	d="
M451.491516,179.008881 
	C452.536041,180.840775 453.440735,182.652588 453.503967,184.493256 
	C453.519775,184.953735 450.848480,185.861099 449.375885,185.947891 
	C445.749847,186.161636 442.102753,186.017899 438.333008,186.017899 
	C438.333008,187.721512 438.333008,189.091660 438.333008,190.844330 
	C444.222931,190.844330 449.825806,190.844330 455.718536,190.844330 
	C455.718536,193.112915 455.718536,195.003433 455.718536,197.764191 
	C449.505280,197.764191 443.300812,198.308838 437.278381,197.499329 
	C434.828278,197.169998 431.049011,194.062744 430.846130,191.935959 
	C430.081543,183.920914 430.539185,175.789291 430.539185,167.546631 
	C439.257996,167.546631 447.469818,167.546631 455.846741,167.546631 
	C455.846741,169.798523 455.846741,171.608093 455.846741,173.838318 
	C450.159515,173.838318 444.397491,173.838318 438.285583,173.838318 
	C438.170990,175.619827 438.081268,177.014877 437.953613,178.999466 
	C442.485138,178.999466 446.762726,178.999466 451.491516,179.008881 
z"/>
<path fill="#FCFCFC" opacity="1.000000" stroke="none" 
	d="
M313.925476,196.164429 
	C309.247437,198.206879 305.974792,196.987961 303.937256,192.315491 
	C302.375336,188.733734 300.272827,185.557632 295.039917,187.472443 
	C295.039917,190.396027 295.039917,193.495468 295.039917,196.854889 
	C292.400330,196.854889 290.136658,196.854889 287.469604,196.854889 
	C287.469604,187.392746 287.469604,177.879013 287.469604,167.900314 
	C294.363739,167.900314 301.173309,167.535904 307.901611,168.115051 
	C310.010773,168.296585 313.417267,170.868286 313.588776,172.606522 
	C313.995209,176.726242 315.823425,181.473511 311.571167,185.174835 
	C310.759064,185.881683 310.888855,188.225723 311.274414,189.624069 
	C311.861328,191.752823 313.051025,193.715378 313.925476,196.164429 
M298.610565,173.991684 
	C292.066101,173.667419 296.002350,178.197617 295.034302,180.625854 
	C299.233887,180.625854 302.940979,180.625854 306.620117,180.625854 
	C306.620117,178.333359 306.620117,176.403839 306.620117,173.991684 
	C304.105530,173.991684 301.826813,173.991684 298.610565,173.991684 
z"/>
<path fill="#FDFDFC" opacity="1.000000" stroke="none" 
	d="
M114.842186,197.047043 
	C109.988167,198.111862 108.731651,194.582596 107.439774,191.781906 
	C105.593849,187.780075 103.071404,185.867157 98.209030,187.406036 
	C98.209030,190.302872 98.209030,193.392426 98.209030,196.754700 
	C95.709427,196.754700 93.637466,196.754700 91.279022,196.754700 
	C91.279022,187.370239 91.279022,177.967224 91.279022,167.964569 
	C98.171982,167.964569 105.154686,167.461563 111.985916,168.257904 
	C114.157043,168.510971 117.081696,171.963120 117.630424,174.407364 
	C118.688911,179.122314 118.310135,184.165146 112.984703,186.700989 
	C114.615395,189.388062 115.957436,191.566254 117.265793,193.764511 
	C118.650566,196.091156 117.914566,197.159485 114.842186,197.047043 
M98.183800,180.257523 
	C101.998505,180.590637 105.813202,180.923752 109.770081,181.269287 
	C109.770081,178.475525 109.770081,176.424484 109.770081,174.247711 
	C105.830360,174.247711 102.124664,174.247711 98.074509,174.247711 
	C98.074509,176.112076 98.074509,177.724915 98.183800,180.257523 
z"/>
<path fill="#FEFEFE" opacity="1.000000" stroke="none" 
	d="
M462.697754,194.198761 
	C461.798401,192.502014 461.203339,191.087540 460.172821,188.637970 
	C467.290466,189.707504 473.360138,190.619568 479.789307,191.585648 
	C479.789307,189.219940 479.789307,187.822952 479.789307,185.995438 
	C476.197205,185.995438 472.742279,186.011490 469.287598,185.991898 
	C463.219147,185.957474 460.927155,183.199417 460.999451,176.055283 
	C461.053650,170.698456 464.249542,167.568710 469.592957,167.683594 
	C473.406982,167.765610 477.220734,167.873169 481.033234,168.007645 
	C485.089691,168.150696 487.818298,171.307510 487.674591,176.099075 
	C481.649048,175.222885 475.661285,174.352188 469.269653,173.422760 
	C469.269653,175.674713 469.269653,177.069656 469.269653,179.001526 
	C472.167969,179.001526 475.123596,178.854431 478.056458,179.049545 
	C480.274231,179.197083 482.778107,179.238419 484.594543,180.292343 
	C487.730011,182.111603 489.565582,188.908447 487.790375,192.252274 
	C486.044891,195.540085 483.284729,197.663376 478.952362,197.086395 
	C475.685974,196.651382 472.277893,197.299438 469.004333,196.891632 
	C466.935608,196.633911 464.998291,195.320786 462.697754,194.198761 
z"/>
<path fill="#FDFDFD" opacity="1.000000" stroke="none" 
	d="
M28.000839,170.288376 
	C30.599916,166.805328 34.477341,167.180695 36.982056,170.742462 
	C40.026787,175.072159 43.020977,179.437408 46.963680,183.480392 
	C46.963680,178.441391 46.963680,173.402390 46.963680,168.180450 
	C49.378075,168.180450 51.329163,168.180450 53.640457,168.180450 
	C53.640457,177.614471 53.640457,187.156296 53.640457,196.963226 
	C42.070770,198.145233 42.763962,186.075348 36.137398,181.901016 
	C36.137398,186.442596 36.137398,191.410187 36.137398,196.683014 
	C33.212734,196.683014 30.831888,196.683014 27.998083,196.683014 
	C27.998083,188.004166 27.998083,179.381378 28.000839,170.288376 
z"/>
<path fill="#FEFEFE" opacity="1.000000" stroke="none" 
	d="
M377.083862,173.454285 
	C377.092041,182.152679 377.092041,182.152679 373.162506,186.870544 
	C374.693268,189.963715 376.222504,193.053833 377.779877,196.200760 
	C371.301880,198.859344 368.967712,195.299103 366.630920,191.221512 
	C364.083954,186.777267 363.923157,186.869415 358.208252,187.275665 
	C358.208252,190.321548 358.208252,193.416534 358.208252,196.793030 
	C355.713165,196.793030 353.640869,196.793030 351.249847,196.793030 
	C351.249847,187.424484 351.249847,178.010864 351.249847,167.942825 
	C358.210114,167.942825 365.314697,167.623795 372.351257,168.174225 
	C374.043579,168.306625 375.510284,171.323395 377.083862,173.454285 
M359.786133,173.996384 
	C359.021057,176.089478 358.256012,178.182587 357.318481,180.747528 
	C362.243591,180.747528 365.949097,180.747528 369.769958,180.747528 
	C369.769958,178.442322 369.769958,176.393677 369.769958,173.993027 
	C366.603271,173.993027 363.663422,173.993027 359.786133,173.996384 
z"/>
<path fill="#FEFEFE" opacity="1.000000" stroke="none" 
	d="
M414.861084,167.939285 
	C423.558594,167.971680 425.021454,169.131073 424.831665,175.997711 
	C418.821777,175.147186 412.836151,174.300079 406.423767,173.392593 
	C406.207489,175.534164 406.065887,176.936432 405.857330,179.001572 
	C408.554443,179.001572 411.011963,179.194550 413.430145,178.967926 
	C423.524078,178.021988 425.740936,182.335602 425.035767,191.183212 
	C424.736664,194.936676 422.870148,196.944534 419.140717,197.026459 
	C414.811096,197.121582 410.477814,197.080154 406.146393,197.054932 
	C400.747986,197.023499 398.971924,195.098526 399.116272,188.973755 
	C405.137878,189.829132 411.131195,190.680481 417.551483,191.592484 
	C417.771973,189.415512 417.913635,188.016891 418.117920,185.999527 
	C415.239471,185.999527 412.610352,185.808502 410.017120,186.032486 
	C398.535797,187.024124 398.179047,180.416092 399.185455,172.816406 
	C399.426422,170.996674 402.355255,168.685364 404.442352,168.156311 
	C407.574188,167.362442 411.054413,167.942963 414.861084,167.939285 
z"/>
<path fill="#FEFEFE" opacity="1.000000" stroke="none" 
	d="
M225.004654,176.050873 
	C225.004486,183.189896 225.004486,189.836884 225.004486,196.706360 
	C220.834717,197.662033 217.740204,197.316620 215.419388,193.152695 
	C213.077469,188.950928 209.958862,185.182053 206.229889,181.532425 
	C206.229889,186.572601 206.229889,191.612793 206.229889,196.864517 
	C203.664642,196.864517 201.585510,196.864517 199.247986,196.864517 
	C199.247986,187.326996 199.247986,177.902191 199.247986,168.313095 
	C203.483765,167.175339 206.611252,167.847260 208.944763,172.217316 
	C211.080948,176.217834 214.145554,179.722580 217.687225,184.688263 
	C217.687225,178.298050 217.687225,173.323898 217.687225,168.130905 
	C220.352936,168.130905 222.428162,168.130905 225.004822,168.130905 
	C225.004822,170.658173 225.004822,173.108505 225.004654,176.050873 
z"/>
<path fill="#FEFEFE" opacity="1.000000" stroke="none" 
	d="
M64.625824,168.006592 
	C69.394623,167.989487 73.716049,167.962097 78.037178,167.986832 
	C82.998619,168.015244 85.949821,170.894211 85.990669,175.759079 
	C86.026947,180.080093 86.011452,184.401688 85.997047,188.722931 
	C85.978493,194.288284 83.219597,196.998978 77.561272,197.017349 
	C73.738625,197.029755 69.915459,197.053314 66.093315,197.006958 
	C62.131893,196.958893 60.038570,194.886734 59.990070,190.938141 
	C59.926792,185.786652 60.180542,180.623566 59.917896,175.484894 
	C59.734325,171.893250 60.930202,169.466949 64.625824,168.006592 
M67.077850,174.768478 
	C67.077850,180.040970 67.077850,185.313461 67.077850,190.802948 
	C70.799988,190.802948 74.190048,190.802948 77.783867,190.802948 
	C77.783867,185.193161 77.783867,179.803375 77.783867,174.082260 
	C74.300751,174.082260 71.022499,174.082260 67.077850,174.768478 
z"/>
<path fill="#FCFCFB" opacity="1.000000" stroke="none" 
	d="
M319.536041,168.462036 
	C326.165649,168.039062 332.490021,167.762177 338.789734,168.041275 
	C340.623383,168.122498 342.803345,169.410004 344.091980,170.815994 
	C346.480682,173.422241 345.432739,184.758804 342.586182,186.864441 
	C340.920288,188.096710 338.552277,188.674896 336.427704,188.920486 
	C333.499146,189.258987 330.502167,189.005310 327.147400,189.005310 
	C327.147400,191.681808 327.147400,194.091919 327.147400,196.798370 
	C324.386383,196.798370 322.010132,196.798370 319.221405,196.798370 
	C319.221405,187.358810 319.221405,178.089417 319.536041,168.462036 
M337.967987,181.249619 
	C337.967987,178.866806 337.967987,176.483994 337.967987,174.325958 
	C333.889099,174.325958 330.514679,174.325958 327.373169,174.325958 
	C327.373169,177.363892 327.373169,180.064117 327.373169,183.261307 
	C331.136383,182.866211 334.480347,182.515137 337.967987,181.249619 
z"/>
<path fill="#FCFCFC" opacity="1.000000" stroke="none" 
	d="
M176.050552,175.065887 
	C176.060120,176.815872 176.124298,178.103607 176.202026,179.663361 
	C181.074844,179.663361 185.695419,179.663361 190.790604,179.663361 
	C190.893066,181.467682 190.980896,183.014511 191.097458,185.066925 
	C186.038284,185.066925 181.292526,185.066925 176.258316,185.066925 
	C176.139267,187.129959 176.046951,188.729691 175.930008,190.756210 
	C181.722260,190.756210 187.318909,190.756210 193.454071,190.756210 
	C193.555313,192.864746 193.638184,194.590775 193.754623,197.016144 
	C186.754272,197.016144 179.964249,197.392715 173.273178,196.745804 
	C171.643387,196.588226 169.225296,193.144333 169.084488,191.080795 
	C168.576111,183.631516 168.884537,176.126511 168.884537,168.274597 
	C177.080856,168.274597 185.121017,168.274597 193.435013,168.274597 
	C193.435013,170.051071 193.435013,171.777344 193.435013,173.648544 
	C187.558228,173.972427 181.831696,174.288025 176.050552,175.065887 
z"/>
<path fill="#FEFEFE" opacity="1.000000" stroke="none" 
	d="
M272.113220,185.251862 
	C263.959473,185.257187 263.959473,185.257187 264.497650,190.971832 
	C267.239532,190.971832 270.032898,190.971817 272.826263,190.971817 
	C275.645172,190.971817 278.464111,190.971832 281.638611,190.971832 
	C281.638611,192.978424 281.638611,194.828491 281.638611,197.108444 
	C275.286438,197.108444 268.940369,197.609055 262.753998,196.834534 
	C260.613770,196.566605 257.403931,193.262985 257.210266,191.117767 
	C256.528778,183.569244 256.945496,175.921555 256.945496,168.096725 
	C265.437103,168.096725 273.498962,168.096725 281.779694,168.096725 
	C281.779694,170.034210 281.779694,171.777451 281.779694,173.983490 
	C275.928192,173.983490 270.173462,173.983490 264.556854,173.983490 
	C263.126251,178.712509 264.866333,180.147324 269.085388,179.796951 
	C272.208466,179.537598 275.370392,179.745956 278.956207,179.745956 
	C279.041138,181.505051 279.116180,183.059067 279.222046,185.251160 
	C276.784576,185.251160 274.686890,185.251160 272.113220,185.251862 
z"/>
<path fill="#FEFEFE" opacity="1.000000" stroke="none" 
	d="
M135.098724,188.995422 
	C133.317596,188.995285 132.008301,188.995285 130.324356,188.995285 
	C130.185257,191.675156 130.060165,194.085281 129.921005,196.766602 
	C127.732681,196.766602 125.656639,196.766602 123.282272,196.766602 
	C123.282272,187.394440 123.282272,177.982986 123.282272,167.962250 
	C129.994598,167.962250 136.775696,167.662384 143.498230,168.157654 
	C145.347870,168.293930 147.773972,170.447250 148.650436,172.287201 
	C152.979004,181.374039 147.999832,189.007019 138.068695,188.999481 
	C137.235992,188.998840 136.403275,188.996887 135.098724,188.995422 
M141.502014,181.889648 
	C141.664856,179.344162 141.827698,176.798676 141.993240,174.211029 
	C137.693024,174.211029 134.093369,174.211029 130.530014,174.211029 
	C129.396347,183.038498 129.451324,183.113617 137.955765,182.951736 
	C138.928391,182.933243 139.896561,182.679276 141.502014,181.889648 
z"/>
<path fill="#F3F3F3" opacity="1.000000" stroke="none" 
	d="
M184.984467,111.961159 
	C183.421875,111.013107 181.436432,110.137840 181.347763,109.100441 
	C181.110062,106.319740 180.336304,102.778503 184.691116,102.013115 
	C190.413147,101.007431 196.141998,100.039787 201.872223,99.081589 
	C203.288559,98.844757 204.721558,98.707550 206.658340,98.458878 
	C206.840805,100.369598 207.021912,102.265915 207.238525,104.534157 
	C214.846329,106.478455 222.572296,108.452957 230.298279,110.427460 
	C230.248245,110.949005 230.198227,111.470558 230.148209,111.992104 
	C227.356705,111.847588 224.396973,112.255081 221.802368,111.464439 
	C209.577316,107.739128 197.515320,109.388878 184.984467,111.961159 
z"/>
<path fill="#F8F8F8" opacity="1.000000" stroke="none" 
	d="
M249.616119,167.867157 
	C255.761032,167.591751 251.949722,171.727310 253.948685,173.963715 
	C250.329956,173.963715 247.876099,173.963715 244.947388,173.963715 
	C244.947388,181.578842 244.947388,188.951843 244.947388,196.731354 
	C242.133652,196.731354 239.780716,196.731354 237.017883,196.731354 
	C237.017883,189.302048 237.017883,181.881058 237.017883,174.143723 
	C234.200302,174.143723 231.766464,174.143723 229.035355,174.143723 
	C229.035355,172.067856 229.035355,170.314865 229.035355,167.864624 
	C235.699127,167.864624 242.431015,167.864624 249.616119,167.867157 
z"/>
<path fill="#FDFDFD" opacity="1.000000" stroke="none" 
	d="
M273.926788,142.000641 
	C260.502869,142.000809 247.569763,142.000809 234.318726,142.000809 
	C234.318726,138.737946 234.318726,135.680084 234.318726,132.432098 
	C242.240479,132.432098 250.243454,132.432098 258.550537,132.432098 
	C258.815887,134.535477 259.034607,136.269043 259.272888,138.157837 
	C267.094452,138.952499 274.922546,139.747849 282.750641,140.543182 
	C282.755188,141.028931 282.759705,141.514694 282.764252,142.000458 
	C279.982025,142.000458 277.199829,142.000458 273.926788,142.000641 
z"/>
<path fill="#FBFBFB" opacity="1.000000" stroke="none" 
	d="
M272.241821,126.001625 
	C263.415955,125.806000 255.056610,125.405853 246.703659,125.511124 
	C242.670197,125.561951 238.648697,126.563332 234.292831,127.180962 
	C234.292831,123.672478 234.292831,120.452911 234.292831,117.556923 
	C242.390335,116.931946 250.355057,116.317215 258.711151,115.672279 
	C258.863739,117.681694 258.997162,119.438484 259.191986,122.004059 
	C266.781799,123.031288 274.586884,124.087654 282.391968,125.144020 
	C282.373627,125.430992 282.355286,125.717964 282.336945,126.004936 
	C279.128296,126.004936 275.919647,126.004936 272.241821,126.001625 
z"/>
<path fill="#FEFEFE" opacity="1.000000" stroke="none" 
	d="
M384.001892,187.753815 
	C383.616516,180.992477 383.231537,174.701599 382.832123,168.174698 
	C385.997864,168.174698 389.745422,168.174698 394.267670,168.174698 
	C391.268921,177.667435 390.610382,187.066895 394.551208,196.736603 
	C390.193237,196.736603 386.455231,196.736603 381.750183,196.736603 
	C382.520233,193.826004 383.261261,191.025146 384.001892,187.753815 
z"/>
<path fill="#FCFCFC" opacity="1.000000" stroke="none" 
	d="
M258.050598,108.000549 
	C249.871384,109.281425 242.142502,110.562286 234.200378,111.878479 
	C234.200378,109.161530 234.200378,106.526833 234.200378,103.225204 
	C242.094406,101.873833 250.246567,100.478271 258.724152,99.027000 
	C258.881134,101.007187 259.034210,102.938194 259.227234,105.373222 
	C267.024139,107.158516 274.964386,108.976639 282.904633,110.794754 
	C282.824432,111.127861 282.744232,111.460968 282.664062,111.794075 
	C274.609680,110.529564 266.555328,109.265053 258.050598,108.000549 
z"/>
<path fill="#FCFCFB" opacity="1.000000" stroke="none" 
	d="
M216.494202,123.703598 
	C220.759628,124.232933 224.586990,124.684410 228.414352,125.135880 
	C228.403381,125.329605 228.392426,125.523323 228.381454,125.717049 
	C213.137878,125.717049 197.894302,125.717049 182.313721,125.717049 
	C182.313721,124.174568 182.313721,121.431313 182.313721,117.860199 
	C189.961258,117.164322 197.816772,116.449516 206.011871,115.703819 
	C206.113327,117.805885 206.191101,119.417145 206.303543,121.746811 
	C209.444855,122.352013 212.750504,122.988869 216.494202,123.703598 
z"/>
<path fill="#FAFAFA" opacity="1.000000" stroke="none" 
	d="
M254.007797,91.891579 
	C247.216553,93.710655 240.832382,95.426308 234.191452,97.210960 
	C234.191452,94.001968 234.191452,91.392387 234.191452,88.675041 
	C242.398605,86.521912 250.443771,84.411285 259.276154,82.094131 
	C256.926941,88.977058 261.982239,89.454765 265.981506,90.734680 
	C270.891785,92.306175 275.859009,93.699867 280.801605,95.170418 
	C280.688446,95.584442 280.575317,95.998474 280.462158,96.412498 
	C275.345490,95.028656 270.282898,93.366165 265.093170,92.358826 
	C261.627380,91.686111 257.980621,91.945763 254.007797,91.891579 
z"/>
<path fill="#FBFBFB" opacity="1.000000" stroke="none" 
	d="
M321.410706,125.715256 
	C313.438629,125.649460 305.896545,125.796379 298.353851,125.896568 
	C294.722687,125.944801 291.090393,125.904884 287.190735,125.904884 
	C287.190735,123.307556 287.190735,120.896828 287.190735,117.795280 
	C294.955292,117.088333 302.742767,116.379295 310.908112,115.635857 
	C310.908112,117.951866 310.908112,119.728424 310.908112,121.989182 
	C318.543182,123.066582 325.938385,124.110138 333.333557,125.153687 
	C333.321167,125.405380 333.308777,125.657066 333.296387,125.908760 
	C329.477722,125.908760 325.659088,125.908760 321.410706,125.715256 
z"/>
<path fill="#FAFAFA" opacity="1.000000" stroke="none" 
	d="
M233.993820,61.309731 
	C234.981476,60.049961 235.842834,58.941410 236.973328,58.441628 
	C244.036942,55.318848 251.160660,52.332066 258.818085,49.063969 
	C257.475586,59.600021 267.242188,57.846191 271.842621,61.775524 
	C272.450500,62.294720 273.352661,62.469372 274.118530,62.803593 
	C273.965454,63.204781 273.812347,63.605968 273.659241,64.007156 
	C269.916473,62.487034 266.260193,60.664051 262.398285,59.561153 
	C260.107025,58.906818 257.251709,58.710152 255.066269,59.483711 
	C248.161133,61.927883 241.452240,64.926430 233.991959,67.987686 
	C233.991959,65.841560 233.991959,63.791969 233.993820,61.309731 
z"/>
<path fill="#FCFCFB" opacity="1.000000" stroke="none" 
	d="
M316.389587,106.679886 
	C322.032623,107.923767 327.267853,109.053093 332.503113,110.182411 
	C332.445892,110.536598 332.388672,110.890785 332.331451,111.244972 
	C324.872772,110.157768 317.404053,108.156418 309.958252,108.238380 
	C302.390991,108.321686 294.846313,110.458939 287.089752,111.729828 
	C287.089752,108.955338 287.089752,106.330078 287.089752,103.081779 
	C294.824371,101.778976 302.669403,100.457573 310.760345,99.094749 
	C310.906433,101.139458 311.045074,103.079941 311.194183,105.166603 
	C312.846130,105.649223 314.413940,106.107269 316.389587,106.679886 
z"/>
<path fill="#FCFCFB" opacity="1.000000" stroke="none" 
	d="
M330.542786,94.199448 
	C331.416656,94.728119 331.939148,95.080887 332.461639,95.433647 
	C332.401031,95.719925 332.340454,96.006195 332.279846,96.292473 
	C327.454956,95.061493 322.469238,94.252129 317.847198,92.489265 
	C312.471558,90.438965 307.552887,91.278580 302.374329,92.879333 
	C297.409119,94.414131 292.298370,95.478134 287.213226,96.758705 
	C286.573395,88.767090 286.571014,88.758408 294.091492,86.696297 
	C299.609619,85.183235 305.135010,83.696739 311.033783,82.096214 
	C310.184692,86.613228 311.517548,89.005920 316.209045,89.821602 
	C320.969452,90.649292 325.538544,92.577393 330.542786,94.199448 
z"/>
<path fill="#FCFCFC" opacity="1.000000" stroke="none" 
	d="
M295.389862,79.363350 
	C292.272614,80.461487 289.495056,81.342918 286.310211,82.353600 
	C286.310211,79.494019 286.310211,77.090439 286.310211,73.997650 
	C294.116913,71.346161 302.277374,68.574524 310.726196,65.704956 
	C310.896820,68.006020 311.040802,69.947861 311.197754,72.064606 
	C316.485077,74.136040 321.743896,76.196304 327.002747,78.256569 
	C326.867676,78.648781 326.732605,79.041000 326.597534,79.433212 
	C324.010498,78.647377 321.229645,78.233398 318.873199,77.005165 
	C312.124054,73.487373 305.838440,75.640205 299.477570,77.992989 
	C298.253479,78.445763 296.980164,78.765526 295.389862,79.363350 
z"/>
<path fill="#FCFCFC" opacity="1.000000" stroke="none" 
	d="
M251.210449,68.159973 
	C253.902634,67.284630 256.226868,66.560234 259.459076,65.552849 
	C256.896210,72.371262 261.633301,73.322044 265.678223,74.825577 
	C268.714661,75.954239 271.757050,77.066849 274.796783,78.186615 
	C274.679688,78.570038 274.562592,78.953461 274.445496,79.336884 
	C272.165466,78.619896 269.733887,78.200760 267.633118,77.131546 
	C260.594788,73.549294 253.944214,75.561508 247.211517,78.026474 
	C243.118958,79.524834 238.935059,80.773682 234.779160,82.138893 
	C232.959961,74.733925 233.207352,74.225220 239.674088,72.031960 
	C243.390106,70.771622 247.119263,69.549988 251.210449,68.159973 
z"/>
<path fill="#FAFAFA" opacity="1.000000" stroke="none" 
	d="
M186.775818,95.986717 
	C184.748169,96.271698 183.144928,96.537926 181.541061,96.804260 
	C180.156158,89.171089 180.661621,88.645294 188.336746,86.931023 
	C194.104126,85.642853 199.767792,83.890259 205.823105,82.250877 
	C204.907776,91.818840 213.685089,89.378807 218.153198,93.140038 
	C207.280136,89.052811 197.242615,92.531593 186.775818,95.986717 
z"/>
<path fill="#FDFDFD" opacity="1.000000" stroke="none" 
	d="
M309.930786,141.095673 
	C301.836487,141.094391 294.230682,141.094391 286.309540,141.094391 
	C286.309540,138.084091 286.309540,135.391708 286.309540,132.492645 
	C294.495209,132.492645 302.484131,132.492645 310.745972,132.492645 
	C310.913788,134.708847 311.046600,136.462387 311.186676,138.312180 
	C314.112122,138.796768 316.860962,139.252106 319.609802,139.707428 
	C319.560669,140.170609 319.511505,140.633789 319.462372,141.096970 
	C316.447998,141.096970 313.433655,141.096970 309.930786,141.095673 
z"/>
<path fill="#FAFAFA" opacity="1.000000" stroke="none" 
	d="
M185.183685,132.920013 
	C192.288834,132.909531 198.909409,132.909531 205.439072,132.909531 
	C206.164276,135.487030 206.833893,137.866959 207.613297,140.637115 
	C199.387680,140.637115 190.920761,140.637115 181.882370,140.637115 
	C183.464340,138.132202 179.023224,134.049744 185.183685,132.920013 
z"/>
<path fill="#F8F8F8" opacity="1.000000" stroke="none" 
	d="
M82.651871,226.728973 
	C79.838387,227.471191 77.301353,227.891373 74.344582,228.381058 
	C74.344582,224.434433 74.344582,221.038620 74.344582,217.241776 
	C75.591682,217.164093 77.013153,217.107605 78.428360,216.981125 
	C82.102081,216.652771 83.739616,217.926010 82.755310,221.873688 
	C82.403969,223.282776 82.847565,224.890091 82.651871,226.728973 
z"/>
<path fill="#FEFEFE" opacity="1.000000" stroke="none" 
	d="
M115.081543,217.978302 
	C117.185097,217.977402 118.817398,217.977402 120.395065,217.977402 
	C122.102341,227.984940 121.691093,228.473984 111.921799,227.666519 
	C113.523506,224.536972 108.909775,220.147583 115.081543,217.978302 
z"/>
<path fill="#FBFBFB" opacity="1.000000" stroke="none" 
	d="
M426.676941,220.645340 
	C427.795624,219.127487 428.647980,217.891281 429.500366,216.655075 
	C429.855957,216.791443 430.211517,216.927795 430.567108,217.064163 
	C430.567108,220.542664 430.567108,224.021149 430.567108,229.151642 
	C428.986481,227.102066 428.123291,225.982788 426.932861,224.439163 
	C425.520752,225.368378 423.543884,226.669205 421.244751,228.182098 
	C421.244751,224.285736 421.244751,220.771164 421.244751,216.167435 
	C423.408661,218.161118 424.909668,219.544067 426.676941,220.645340 
z"/>
<path fill="#F8F8F8" opacity="1.000000" stroke="none" 
	d="
M389.546204,227.042419 
	C389.176117,226.426239 389.059113,226.106125 389.048981,225.782669 
	C388.787659,217.420166 388.852295,217.364655 397.701660,218.313141 
	C397.701660,221.435715 397.701660,224.572739 397.701660,228.813385 
	C395.225861,224.635300 393.127563,223.228073 391.076996,227.788116 
	C391.064392,227.816116 390.275513,227.495010 389.546204,227.042419 
z"/>
<path fill="#FDFDFC" opacity="1.000000" stroke="none" 
	d="
M322.212616,226.970123 
	C318.709839,221.359741 317.006042,228.764191 314.208008,227.915039 
	C314.135498,226.534180 314.060974,225.233582 314.000092,223.932358 
	C313.847015,220.659103 313.518433,217.794846 318.562195,217.760849 
	C323.769562,217.725754 323.112122,220.807083 323.008423,223.966263 
	C322.976379,224.942444 322.769653,225.912872 322.212616,226.970123 
z"/>
<path fill="#FAFAFA" opacity="1.000000" stroke="none" 
	d="
M356.013000,220.790253 
	C355.751312,223.116638 355.486877,225.032394 355.114227,227.732269 
	C353.559021,226.310562 352.195251,225.063858 350.523071,223.535187 
	C349.587067,225.156265 348.867706,226.402145 347.409058,228.928436 
	C347.409058,224.501068 347.409058,221.509567 347.409058,218.098282 
	C350.228271,218.845261 353.995087,215.516083 356.013000,220.790253 
z"/>
<path fill="#F6F6F6" opacity="1.000000" stroke="none" 
	d="
M371.810272,227.010559 
	C369.375305,226.300949 366.929779,221.683563 364.265350,227.813995 
	C364.119568,224.760345 363.973816,221.706696 363.809753,218.269516 
	C366.514893,218.269516 368.899323,218.269516 372.006866,218.269516 
	C372.006866,220.914001 372.006866,223.782608 371.810272,227.010559 
z"/>
<path fill="#FAFAFA" opacity="1.000000" stroke="none" 
	d="
M238.891006,224.131592 
	C238.116272,225.199783 237.751205,226.200485 237.386154,227.201202 
	C236.998718,227.184998 236.611282,227.168793 236.223846,227.152588 
	C236.089172,224.272964 235.954498,221.393326 235.767456,217.393921 
	C238.990173,218.038589 242.554901,217.747345 244.048721,219.366608 
	C245.255112,220.674316 243.964279,224.285782 243.728836,227.617004 
	C242.033157,226.256485 240.666916,225.160294 238.891006,224.131592 
z"/>
<path fill="#FAFAFA" opacity="1.000000" stroke="none" 
	d="
M134.413956,225.612289 
	C133.755310,224.658981 133.319748,224.009872 132.815430,223.258286 
	C131.983307,224.792175 131.256592,226.131714 130.529892,227.471268 
	C130.139450,227.333328 129.748993,227.195389 129.358551,227.057434 
	C129.358551,224.182663 129.358551,221.307877 129.358551,216.882416 
	C131.810532,219.164551 133.570267,220.802399 135.595291,222.687164 
	C135.900696,220.988754 136.173370,219.472458 136.446030,217.956161 
	C136.795807,217.981232 137.145584,218.006302 137.495361,218.031387 
	C137.495361,221.141235 137.495361,224.251083 137.495361,228.038300 
	C136.465561,227.273834 135.551300,226.595169 134.413956,225.612289 
z"/>
<path fill="#FEFEFE" opacity="1.000000" stroke="none" 
	d="
M433.013702,224.511887 
	C433.000458,222.252747 433.000458,220.436554 433.000458,218.432709 
	C436.065125,218.432709 438.972931,218.432709 441.880737,218.432709 
	C441.924835,218.782913 441.968933,219.133118 442.013031,219.483307 
	C440.016785,219.806396 438.020569,220.129486 436.024323,220.452560 
	C436.008636,220.750061 435.992981,221.047546 435.977295,221.345032 
	C437.659760,221.747269 439.342224,222.149490 441.024719,222.551727 
	C441.028717,222.832077 441.032745,223.112442 441.036774,223.392807 
	C439.367798,223.781921 437.698822,224.171036 436.029846,224.560150 
	C436.020844,224.848572 436.011841,225.137009 436.002838,225.425430 
	C438.001831,225.793884 440.000854,226.162323 441.999847,226.530777 
	C438.581116,227.844223 435.119598,229.403793 433.013702,224.511887 
z"/>
<path fill="#F8F8F8" opacity="1.000000" stroke="none" 
	d="
M277.059937,219.511658 
	C278.330292,219.177597 279.804413,218.901764 280.793610,219.470016 
	C281.779846,220.036560 282.279877,221.449432 283.587402,223.359421 
	C283.861359,220.899323 284.021820,219.458359 284.182281,218.017410 
	C284.679474,217.996292 285.176697,217.975189 285.673920,217.954086 
	C285.832611,220.912720 285.991272,223.871353 286.149933,226.829987 
	C285.789764,227.084641 285.429596,227.339279 285.069427,227.593933 
	C283.605286,226.243576 282.141174,224.893219 280.762085,223.621292 
	C280.037018,224.689789 279.203125,225.918655 278.369232,227.147537 
	C277.991577,225.733322 277.543945,224.332932 277.260773,222.900040 
	C277.070465,221.937119 277.112915,220.928177 277.059937,219.511658 
z"/>
<path fill="#F8F8F8" opacity="1.000000" stroke="none" 
	d="
M207.617645,225.854507 
	C208.717056,224.575180 209.538284,223.305344 210.067795,221.923721 
	C210.580551,220.585861 210.793289,219.133011 211.620575,217.861801 
	C214.644165,226.343506 213.433609,227.758041 204.298248,226.839874 
	C204.298248,223.993744 204.298248,221.109436 204.298248,217.635147 
	C209.363495,219.255936 205.560318,223.547409 207.617645,225.854507 
z"/>
<path fill="#F8F8F8" opacity="1.000000" stroke="none" 
	d="
M250.844299,225.793121 
	C252.539749,225.976990 253.834595,226.101242 256.547424,226.361588 
	C248.253983,229.595551 246.665085,227.897354 247.196625,218.256882 
	C249.775528,218.256882 252.366821,218.256882 254.958115,218.256882 
	C255.020630,218.653030 255.083130,219.049194 255.145630,219.445343 
	C253.321625,219.734695 251.497635,220.024048 249.673630,220.313400 
	C249.621918,220.573425 249.570206,220.833450 249.518478,221.093491 
	C251.255600,221.504913 252.992722,221.916351 254.729843,222.327789 
	C254.787674,222.588593 254.845505,222.849380 254.903336,223.110184 
	C253.509354,223.399063 252.088257,223.605698 250.745087,224.048660 
	C250.487427,224.133652 250.536270,225.147949 250.844299,225.793121 
z"/>
<path fill="#F3F3F3" opacity="1.000000" stroke="none" 
	d="
M145.835205,227.662384 
	C143.986084,227.413010 142.560669,227.186432 141.029633,226.943054 
	C141.029633,223.973206 141.029633,221.341064 141.029633,218.319351 
	C143.665726,218.319351 146.280945,218.319351 148.896164,218.319351 
	C148.934677,218.723557 148.973190,219.127762 149.011719,219.531967 
	C147.162933,219.635284 145.314133,219.738617 143.243607,219.854340 
	C143.243607,221.627975 143.243607,223.414978 143.243607,225.654419 
	C144.339798,225.717209 145.522842,225.784973 147.315796,225.887665 
	C146.389603,224.421982 145.773956,223.447739 144.979813,222.191055 
	C146.374756,222.191055 147.466858,222.191055 150.416214,222.191055 
	C148.623093,224.560791 147.440994,226.122986 145.835205,227.662384 
z"/>
<path fill="#FBFBFB" opacity="1.000000" stroke="none" 
	d="
M93.798973,226.461090 
	C91.469330,227.071793 87.654305,227.929810 87.426277,227.357819 
	C86.293152,224.515503 86.105026,221.296463 85.584084,218.210098 
	C86.210205,218.126724 86.836327,218.043335 87.462456,217.959946 
	C87.737411,220.442764 88.012367,222.925583 88.282074,225.411377 
	C91.049850,225.732758 91.049850,225.732758 92.599098,218.119080 
	C93.055199,218.091782 93.511307,218.064484 93.967407,218.037186 
	C93.967407,220.707825 93.967407,223.378464 93.798973,226.461090 
z"/>
<path fill="#FEFEFE" opacity="1.000000" stroke="none" 
	d="
M271.855743,227.217651 
	C266.824127,227.983398 265.756012,225.788986 265.914246,221.552002 
	C266.093872,216.743347 269.355774,217.867981 271.909424,218.018387 
	C272.972504,218.080994 274.860657,219.599182 274.805786,220.339264 
	C274.626556,222.756912 276.825165,226.327759 271.855743,227.217651 
M268.182526,224.184723 
	C269.502899,224.898621 270.823303,225.612518 272.143677,226.326416 
	C272.646851,225.853760 273.149994,225.381104 273.653137,224.908447 
	C272.710052,222.998535 271.766968,221.088623 270.823883,219.178711 
	C269.929291,220.574051 269.034668,221.969391 268.182526,224.184723 
z"/>
<path fill="#FCFCFC" opacity="1.000000" stroke="none" 
	d="
M341.021729,221.904694 
	C342.195587,222.028824 342.954803,222.152588 344.358582,222.381409 
	C342.045197,223.080917 340.408081,223.575943 338.770935,224.070984 
	C338.810760,224.530518 338.850555,224.990051 338.890381,225.449585 
	C340.804260,225.730057 342.718170,226.010544 345.500854,226.418335 
	C336.138275,228.197571 335.574951,227.651413 336.272186,218.160995 
	C337.652222,218.082123 339.081085,217.971588 340.511963,217.927216 
	C341.811127,217.886932 343.112488,217.918686 344.412903,217.918686 
	C344.435150,218.335876 344.457367,218.753082 344.479584,219.170273 
	C343.217438,219.170273 341.884033,218.907028 340.708038,219.225281 
	C338.289124,219.879974 338.140198,220.914429 341.021729,221.904694 
z"/>
<path fill="#FEFEFE" opacity="1.000000" stroke="none" 
	d="
M166.670502,223.906433 
	C166.859543,221.632004 166.992767,219.810440 167.181946,217.223969 
	C168.925385,219.376190 169.956970,220.649658 170.988556,221.923111 
	C172.035202,220.649597 173.081848,219.376083 174.577621,217.556061 
	C174.577621,221.116898 174.577621,224.132553 174.577621,227.593948 
	C172.985214,225.729797 171.731903,224.262619 169.819733,222.024139 
	C169.199814,224.513733 168.901169,225.713120 168.602509,226.912521 
	C168.259476,226.998154 167.916458,227.083801 167.573425,227.169449 
	C167.253845,226.232742 166.934265,225.296021 166.670502,223.906433 
z"/>
<path fill="#FEFEFE" opacity="1.000000" stroke="none" 
	d="
M228.104736,225.829559 
	C229.367188,225.011719 230.653427,224.256317 230.891678,223.252258 
	C231.283997,221.598923 230.998093,219.784668 230.998093,218.038239 
	C231.565445,218.006500 232.132797,217.974762 232.700150,217.943024 
	C232.862595,220.753738 233.025040,223.564453 233.213120,226.818588 
	C230.446625,226.818588 228.061401,226.818588 225.257736,226.818588 
	C225.257736,223.997299 225.257736,221.036804 225.257736,218.076309 
	C225.620300,218.017548 225.982864,217.958786 226.345428,217.900024 
	C226.782867,220.526779 227.220306,223.153534 228.104736,225.829559 
z"/>
<path fill="#FEFEFE" opacity="1.000000" stroke="none" 
	d="
M97.389137,217.250488 
	C98.511032,217.917694 99.846001,218.707443 99.982620,219.667694 
	C100.314903,222.003174 100.090790,224.417847 100.090790,227.559311 
	C99.253433,227.670761 97.813377,227.862411 96.556747,228.029648 
	C96.738533,224.186157 96.897827,220.818375 97.389137,217.250488 
z"/>
<path fill="#FEFEFE" opacity="1.000000" stroke="none" 
	d="
M291.142883,224.209991 
	C292.852295,225.257690 294.650696,225.897827 297.280548,226.833908 
	C294.112549,226.833908 291.728912,226.833908 289.083923,226.833908 
	C289.083923,223.926804 289.083923,221.192505 289.083923,218.181732 
	C291.640930,218.181732 294.123901,218.181732 296.606842,218.181732 
	C296.626434,218.369736 296.646027,218.557739 296.665619,218.745728 
	C294.712799,219.143326 292.759949,219.540924 290.807129,219.938507 
	C290.863373,220.391998 290.919617,220.845490 290.975861,221.298996 
	C292.579468,221.646744 294.183105,221.994492 296.572479,222.512619 
	C294.276733,223.067062 292.754272,223.434738 291.142883,224.209991 
z"/>
<path fill="#FEFEFE" opacity="1.000000" stroke="none" 
	d="
M181.379669,219.198669 
	C180.445892,221.643402 180.445892,221.643402 184.665298,222.532806 
	C183.054504,223.084488 181.443939,223.632523 179.833359,224.180557 
	C179.882858,224.600861 179.932358,225.021149 179.981857,225.441452 
	C181.886597,225.749405 183.791321,226.057343 185.696060,226.365295 
	C185.677536,226.550644 185.659012,226.736008 185.640472,226.921356 
	C183.246094,226.921356 180.851715,226.921356 178.184052,226.921356 
	C178.184052,223.979477 178.184052,221.247253 178.184052,218.220505 
	C180.607391,218.220505 183.001343,218.220505 185.395294,218.220505 
	C185.421951,218.531952 185.448608,218.843384 185.475281,219.154831 
	C184.248917,219.154831 183.022537,219.154831 181.379669,219.198669 
z"/>
<path fill="#FDFDFD" opacity="1.000000" stroke="none" 
	d="
M331.358032,219.140945 
	C332.247284,218.548401 332.879181,218.218063 334.595184,217.320953 
	C332.778259,221.300003 331.450684,224.207413 329.920166,227.559219 
	C328.217926,224.308167 326.683624,221.377884 325.149353,218.447601 
	C325.402985,218.169846 325.656616,217.892090 325.910248,217.614334 
	C327.200775,218.806274 328.491272,219.998215 329.916687,221.314758 
	C330.144958,220.946198 330.622772,220.174683 331.358032,219.140945 
z"/>
<path fill="#F3F3F3" opacity="1.000000" stroke="none" 
	d="
M377.999939,227.755646 
	C377.366608,226.467102 377.306061,225.148636 376.945068,223.918320 
	C376.424866,222.145386 375.686401,220.436493 374.931671,218.405930 
	C376.813477,218.405930 379.522491,218.405930 380.995178,218.405930 
	C380.181305,221.385162 379.309906,224.575134 377.999939,227.755646 
z"/>
<path fill="#FAFAFA" opacity="1.000000" stroke="none" 
	d="
M157.589996,217.965515 
	C160.135437,217.944794 162.264145,217.944794 163.672318,217.944794 
	C163.083038,220.165558 162.578796,222.280319 161.945465,224.355667 
	C161.659561,225.292542 161.116608,226.150986 160.690277,227.045013 
	C160.123596,226.122391 159.188110,225.246231 159.064819,224.267746 
	C158.782211,222.025192 159.791656,219.351334 156.511703,218.455490 
	C156.580933,218.364624 156.633209,218.247787 156.723373,218.188965 
	C156.859451,218.100143 157.021973,218.051804 157.589996,217.965515 
z"/>
<path fill="#FBFBFB" opacity="1.000000" stroke="none" 
	d="
M410.074402,222.389908 
	C410.091339,224.519989 410.091339,226.225464 410.091339,227.930923 
	C409.687500,227.971191 409.283661,228.011459 408.879852,228.051712 
	C408.045258,224.912155 407.210663,221.772598 406.309662,218.383118 
	C407.796814,218.383118 410.486694,218.383118 413.429596,218.383118 
	C412.151947,219.740356 411.104736,220.852814 410.074402,222.389908 
z"/>
<path fill="#FDFDFD" opacity="1.000000" stroke="none" 
	d="
M193.903595,221.065338 
	C195.117249,215.087967 199.083221,219.233398 201.699707,218.707214 
	C199.740997,219.106689 197.782303,219.506165 195.823608,219.905640 
	C195.866058,220.372482 195.908508,220.839325 195.950958,221.306168 
	C197.538803,221.654755 199.126663,222.003357 200.152481,222.228561 
	C198.520157,223.429916 196.647110,224.808456 194.287216,226.545303 
	C194.188522,225.254761 194.045883,223.389618 193.903595,221.065338 
z"/>
<path fill="#F6F6F6" opacity="1.000000" stroke="none" 
	d="
M102.939774,220.197693 
	C103.209274,219.128311 103.481369,218.512894 103.753464,217.897461 
	C104.051178,217.947159 104.348900,217.996841 104.646622,218.046539 
	C104.646622,220.417465 104.646622,222.788376 104.646622,225.423386 
	C106.691406,225.795929 108.329727,226.094406 110.335976,226.459915 
	C104.614426,229.707870 102.919960,228.235718 102.939774,220.197693 
z"/>
<path fill="#FEFEFE" opacity="1.000000" stroke="none" 
	d="
M417.999084,222.981781 
	C418.272491,224.763184 418.541565,226.126404 418.858032,227.729614 
	C417.558929,227.729614 416.354340,227.729614 415.520538,227.729614 
	C415.520538,224.515945 415.520538,221.558441 415.520538,218.226486 
	C416.270203,218.190308 417.468384,218.132477 418.642639,218.075806 
	C418.397552,219.773529 418.196136,221.168549 417.999084,222.981781 
z"/>
<path fill="#F3F3F3" opacity="1.000000" stroke="none" 
	d="
M126.779556,226.638489 
	C125.722839,227.207047 124.675041,227.389221 123.628738,227.571152 
	C123.628738,224.238327 123.628738,221.305069 123.628738,218.161499 
	C124.438545,218.161499 125.522858,218.161499 126.195892,218.161499 
	C126.402809,220.986557 126.595642,223.619339 126.779556,226.638489 
z"/>
<path fill="#FEFEFE" opacity="1.000000" stroke="none" 
	d="
M219.991379,224.929382 
	C219.739883,225.927948 219.490707,226.479263 219.241531,227.030563 
	C218.764801,226.363647 218.059036,225.759979 217.854187,225.018005 
	C217.235153,222.775665 216.810547,220.479645 216.285645,218.093155 
	C217.737030,218.093155 220.157654,218.093155 221.554398,218.093155 
	C221.027618,220.249588 220.510666,222.365860 219.991379,224.929382 
z"/>
<path fill="#383736" opacity="1.000000" stroke="none" 
	d="
M299.079346,173.991684 
	C301.826813,173.991684 304.105530,173.991684 306.620117,173.991684 
	C306.620117,176.403839 306.620117,178.333359 306.620117,180.625854 
	C302.940979,180.625854 299.233887,180.625854 295.034302,180.625854 
	C296.002350,178.197617 292.066101,173.667419 299.079346,173.991684 
z"/>
<path fill="#333230" opacity="1.000000" stroke="none" 
	d="
M98.129150,179.797638 
	C98.074509,177.724915 98.074509,176.112076 98.074509,174.247711 
	C102.124664,174.247711 105.830360,174.247711 109.770081,174.247711 
	C109.770081,176.424484 109.770081,178.475525 109.770081,181.269287 
	C105.813202,180.923752 101.998505,180.590637 98.129150,179.797638 
z"/>
<path fill="#363534" opacity="1.000000" stroke="none" 
	d="
M360.254852,173.994705 
	C363.663422,173.993027 366.603271,173.993027 369.769958,173.993027 
	C369.769958,176.393677 369.769958,178.442322 369.769958,180.747528 
	C365.949097,180.747528 362.243591,180.747528 357.318481,180.747528 
	C358.256012,178.182587 359.021057,176.089478 360.254852,173.994705 
z"/>
<path fill="#32312F" opacity="1.000000" stroke="none" 
	d="
M67.411057,174.425369 
	C71.022499,174.082260 74.300751,174.082260 77.783867,174.082260 
	C77.783867,179.803375 77.783867,185.193161 77.783867,190.802948 
	C74.190048,190.802948 70.799988,190.802948 67.077850,190.802948 
	C67.077850,185.313461 67.077850,180.040970 67.411057,174.425369 
z"/>
<path fill="#363534" opacity="1.000000" stroke="none" 
	d="
M337.896149,181.706848 
	C334.480347,182.515137 331.136383,182.866211 327.373169,183.261307 
	C327.373169,180.064117 327.373169,177.363892 327.373169,174.325958 
	C330.514679,174.325958 333.889099,174.325958 337.967987,174.325958 
	C337.967987,176.483994 337.967987,178.866806 337.896149,181.706848 
z"/>
<path fill="#383736" opacity="1.000000" stroke="none" 
	d="
M141.184402,182.212067 
	C139.896561,182.679276 138.928391,182.933243 137.955765,182.951736 
	C129.451324,183.113617 129.396347,183.038498 130.530014,174.211029 
	C134.093369,174.211029 137.693024,174.211029 141.993240,174.211029 
	C141.827698,176.798676 141.664856,179.344162 141.184402,182.212067 
z"/>
<path fill="#4D4D4D" opacity="1.000000" stroke="none" 
	d="
M268.161316,223.774734 
	C269.034668,221.969391 269.929291,220.574051 270.823883,219.178711 
	C271.766968,221.088623 272.710052,222.998535 273.653137,224.908447 
	C273.149994,225.381104 272.646851,225.853760 272.143677,226.326416 
	C270.823303,225.612518 269.502899,224.898621 268.161316,223.774734 
z"/>
</svg>