<?xml version="1.0" standalone="no"?>
<!DOCTYPE svg PUBLIC "-//W3C//DTD SVG 20010904//EN"
 "http://www.w3.org/TR/2001/REC-SVG-20010904/DTD/svg10.dtd">
<svg version="1.0" xmlns="http://www.w3.org/2000/svg"
 width="516.000000pt" height="275.000000pt" viewBox="0 0 516.000000 275.000000"
 preserveAspectRatio="xMidYMid meet">

<g transform="translate(0.000000,275.000000) scale(0.100000,-0.100000)"
fill="#000000" stroke="none">
<path d="M0 1375 l0 -1375 2580 0 2580 0 0 1375 0 1375 -2580 0 -2580 0 0
-1375z m2698 771 c133 -64 124 -67 -22 -7 l-100 42 -105 -42 c-58 -23 -110
-46 -116 -51 -18 -16 -25 -7 -25 35 l0 42 123 52 122 51 3 -33 c3 -31 8 -35
120 -89z m-116 -77 c3 -33 10 -36 211 -111 15 -6 26 -13 23 -15 -2 -3 -53 12
-112 31 -60 20 -116 36 -125 36 -9 0 -61 -14 -115 -31 -55 -17 -107 -33 -116
-36 -15 -4 -18 1 -18 34 l0 40 113 41 c61 22 117 41 124 41 6 1 13 -13 15 -30z
m520 0 c3 -30 8 -33 96 -68 110 -42 108 -52 -4 -16 -43 13 -87 25 -97 25 -10
0 -66 -16 -124 -35 -58 -19 -110 -35 -114 -35 -5 0 -9 18 -9 39 0 29 5 41 18
45 9 4 60 21 112 40 52 19 100 35 107 35 6 1 13 -13 15 -30z m-1050 -161 c3
-32 5 -33 115 -68 61 -19 115 -39 120 -44 4 -5 -1 -6 -12 -3 -11 3 -66 18
-122 33 l-103 27 -107 -27 c-60 -15 -116 -30 -125 -32 -15 -5 -18 1 -18 35 l0
40 58 17 c31 9 84 24 117 34 33 10 63 19 67 19 4 1 8 -14 10 -31z m530 0 c3
-31 6 -33 93 -61 76 -24 181 -66 135 -54 -8 2 -64 17 -125 32 l-110 27 -100
-27 c-55 -14 -110 -28 -122 -32 -21 -5 -23 -2 -23 41 0 41 3 46 23 47 12 0 65
13 117 29 52 15 98 29 102 29 4 1 8 -13 10 -31z m520 1 c3 -30 7 -33 83 -57
115 -36 136 -44 131 -50 -3 -3 -54 8 -113 23 l-108 27 -115 -30 -115 -30 -3
36 c-2 19 0 38 5 43 6 6 193 63 225 68 4 1 8 -13 10 -30z m-1042 -163 c0 -33
2 -35 45 -42 25 -3 43 -10 40 -14 -2 -4 7 -5 20 -2 14 2 25 0 25 -4 0 -5 15
-10 34 -11 19 -1 45 -7 58 -15 l23 -13 -30 -3 c-16 -2 -73 4 -125 13 -88 16
-102 16 -203 1 -154 -23 -147 -24 -147 28 0 37 4 46 23 52 19 6 191 39 225 43
7 0 12 -12 12 -33z m522 -8 c3 -35 -1 -33 163 -68 61 -13 108 -38 50 -27 -195
39 -216 40 -320 23 -55 -9 -110 -19 -122 -22 -21 -4 -23 -1 -23 40 l0 44 73
12 c39 7 90 16 112 20 63 12 64 12 67 -22z m520 0 c3 -31 6 -33 73 -49 39 -9
88 -20 110 -24 22 -4 34 -10 26 -12 -7 -3 -59 3 -116 12 -97 17 -108 17 -201
1 -55 -10 -107 -20 -116 -22 -15 -5 -18 2 -18 40 0 43 1 45 33 51 17 3 66 11
107 19 102 19 98 20 102 -16z m-1052 -167 c0 -29 2 -29 73 -40 39 -7 92 -15
117 -19 28 -5 -31 -8 -160 -9 -113 -1 -221 -3 -240 -5 -34 -3 -35 -2 -38 38
-3 46 2 49 103 53 27 1 51 4 54 7 2 2 24 4 48 4 41 0 43 -1 43 -29z m530 0 c0
-34 4 -35 144 -51 49 -5 91 -12 94 -14 2 -3 -78 -4 -179 -3 -101 1 -212 -2
-246 -6 l-63 -8 0 51 c0 44 2 51 18 46 9 -3 33 -2 52 2 19 4 67 9 107 10 l73
2 0 -29z m520 0 c0 -32 -10 -29 190 -58 37 -6 -25 -9 -187 -8 l-243 0 0 37 c0
34 3 38 33 42 40 7 97 12 160 14 46 2 47 1 47 -27z m-956 -203 c49 -4 91 -10
94 -13 3 -3 -92 -5 -211 -5 l-217 0 0 40 0 39 118 3 117 3 5 -30 5 -30 89 -7z
m372 62 c63 0 64 0 64 -27 0 -22 5 -28 23 -29 100 -5 217 -18 217 -25 0 -5
-110 -9 -245 -9 l-245 0 0 51 0 52 61 -7 c34 -3 91 -6 125 -6z m584 -27 l0
-33 63 -1 c34 -1 76 -5 92 -9 17 -4 -65 -8 -187 -9 l-218 -1 0 45 0 44 125 -2
125 -2 0 -32z m1450 -348 l0 -35 -90 0 c-89 0 -90 0 -90 -25 0 -23 3 -24 78
-27 l77 -3 0 -30 0 -30 -78 -3 c-74 -3 -78 -4 -75 -25 3 -21 9 -22 91 -25 l88
-3 -3 -32 -3 -32 -99 -3 c-95 -3 -100 -2 -127 24 -27 25 -27 29 -28 146 -1 65
1 124 4 129 4 5 62 9 131 9 l124 0 0 -35z m298 2 c34 -32 29 -57 -12 -57 -19
0 -38 5 -41 10 -3 6 -31 10 -61 10 -51 0 -54 -1 -54 -25 0 -24 2 -25 72 -25
60 0 76 -4 95 -22 32 -30 32 -102 1 -135 -19 -21 -30 -23 -113 -23 -84 0 -93
2 -114 24 -42 45 -8 82 46 49 12 -7 45 -13 73 -13 47 0 50 2 50 25 0 24 -2 25
-72 25 -60 0 -76 4 -95 22 -33 31 -32 102 2 138 25 26 29 27 113 23 70 -4 91
-9 110 -26z m-4451 -59 l58 -83 3 83 3 82 34 0 35 0 0 -145 0 -145 -34 0 c-31
0 -38 6 -90 82 l-56 82 0 -82 0 -82 -40 0 -40 0 0 145 0 145 35 0 c32 0 39 -6
92 -82z m430 60 c21 -20 23 -30 23 -122 0 -89 -2 -102 -22 -123 -19 -21 -30
-23 -111 -23 -125 0 -127 2 -127 143 0 145 2 147 123 147 79 0 94 -3 114 -22z
m320 0 c33 -31 32 -105 -1 -145 l-24 -28 24 -35 c34 -49 31 -60 -14 -60 -35 0
-40 4 -67 50 -26 44 -33 50 -62 50 -33 0 -33 0 -33 -50 l0 -50 -35 0 -35 0 0
145 0 145 112 0 c101 0 114 -2 135 -22z m310 0 c19 -18 23 -32 23 -82 0 -88
-20 -106 -117 -106 l-73 0 0 -40 c0 -39 -1 -40 -35 -40 l-35 0 0 145 0 145
107 0 c96 0 109 -2 130 -22z m473 -8 l0 -30 -90 0 -90 0 0 -30 0 -30 75 0 c73
0 75 -1 75 -25 0 -24 -2 -25 -75 -25 l-75 0 0 -30 0 -30 90 0 90 0 0 -30 0
-30 -107 0 c-146 0 -143 -3 -143 162 l0 128 125 0 125 0 0 -30z m177 -52 l58
-83 3 83 3 82 34 0 35 0 0 -145 0 -145 -34 0 c-30 0 -38 7 -85 75 -28 41 -56
77 -61 80 -6 4 -10 -25 -10 -74 l0 -81 -35 0 -35 0 0 145 0 145 34 0 c32 0 39
-7 93 -82z m413 52 c0 -28 -2 -30 -40 -30 l-40 0 0 -115 0 -115 -40 0 -40 0 0
115 0 115 -40 0 c-38 0 -40 2 -40 30 l0 30 120 0 120 0 0 -30z m290 0 l0 -30
-91 0 -90 0 3 -27 c3 -27 5 -28 76 -31 69 -3 72 -4 72 -27 0 -23 -3 -24 -72
-27 -71 -3 -73 -4 -76 -30 l-3 -28 90 0 91 0 0 -30 0 -30 -102 0 c-91 0 -104
2 -125 22 -22 20 -23 29 -23 145 l0 123 125 0 125 0 0 -30z m297 8 c31 -29 33
-116 3 -143 -25 -22 -25 -33 0 -65 31 -40 26 -60 -15 -60 -31 0 -38 5 -66 50
-26 42 -36 50 -60 50 -28 0 -29 -1 -29 -50 l0 -50 -40 0 -40 0 0 145 0 145
112 0 c101 0 114 -2 135 -22z m315 5 c14 -12 18 -31 18 -81 0 -93 -19 -112
-112 -112 l-68 0 0 -40 0 -40 -40 0 -40 0 0 145 0 145 112 0 c90 0 115 -3 130
-17z m320 0 c27 -24 25 -119 -3 -149 l-21 -23 21 -34 c31 -51 28 -67 -13 -67
-31 0 -38 5 -63 50 -25 44 -32 50 -60 50 -33 0 -33 0 -33 -50 l0 -50 -35 0
-35 0 0 145 0 145 112 0 c90 0 115 -3 130 -17z m188 -8 c0 -14 -4 -25 -10 -25
-6 0 -10 -38 -10 -95 0 -57 4 -95 10 -95 6 0 10 -11 10 -25 0 -24 -3 -25 -60
-25 -57 0 -60 1 -60 25 0 14 5 25 10 25 6 0 10 38 10 95 0 57 -4 95 -10 95 -5
0 -10 11 -10 25 0 24 3 25 60 25 57 0 60 -1 60 -25z m292 8 c10 -9 18 -27 18
-40 0 -19 -5 -23 -29 -23 -17 0 -33 5 -36 10 -3 6 -33 10 -66 10 -56 0 -59 -1
-59 -25 0 -24 2 -25 72 -25 94 0 118 -19 118 -93 0 -78 -14 -87 -128 -87 -104
0 -132 12 -132 57 0 19 5 23 29 23 17 0 33 -4 36 -10 3 -5 33 -10 66 -10 56 0
59 1 59 25 0 24 -2 25 -72 25 -94 0 -118 19 -118 93 0 78 14 87 128 87 75 0
99 -4 114 -17z m-3407 -528 l0 -50 -42 -3 -43 -3 0 56 0 56 43 -3 42 -3 0 -50z
m178 0 c0 -42 -3 -50 -19 -53 -17 -2 -19 3 -17 50 1 29 2 54 3 56 0 2 7 2 16
0 13 -2 17 -15 17 -53z m3239 35 c7 -11 16 -20 20 -20 4 0 10 9 13 20 3 11 13
20 21 20 10 0 14 -14 14 -55 0 -42 -3 -55 -15 -55 -9 0 -15 9 -15 23 0 18 -2
19 -10 7 -9 -13 -11 -13 -20 0 -8 12 -10 11 -10 -7 0 -14 -6 -23 -15 -23 -12
0 -15 13 -15 55 0 57 11 69 32 35z m-3362 -30 c0 -33 3 -40 20 -40 17 0 20 7
20 40 0 22 5 40 11 40 6 0 9 -19 7 -47 -3 -48 -3 -48 -38 -48 -35 0 -35 0 -38
48 -2 28 1 47 7 47 6 0 11 -18 11 -40z m170 0 c0 -36 3 -40 25 -40 14 0 25 -5
25 -11 0 -6 -14 -9 -32 -7 -32 3 -33 5 -36 51 -2 28 1 47 7 47 6 0 11 -18 11
-40z m158 -7 l-3 -48 -42 -3 -43 -3 0 50 0 51 46 0 45 0 -3 -47z m57 -3 c0
-38 -4 -50 -15 -50 -12 0 -15 12 -15 50 0 38 4 50 15 50 11 0 15 -12 15 -50z
m72 23 l22 -28 1 28 c0 15 5 27 10 27 6 0 10 -22 10 -50 0 -56 -11 -63 -37
-23 -17 26 -18 26 -23 4 -9 -39 -25 -27 -28 22 -4 55 10 61 45 20z m153 17 c0
-5 -13 -10 -30 -10 -27 0 -30 -3 -30 -30 0 -23 4 -30 20 -30 11 0 20 5 20 10
0 6 -4 10 -10 10 -5 0 -10 5 -10 10 0 6 9 10 21 10 16 0 20 -5 17 -27 -3 -25
-7 -28 -38 -28 -35 0 -35 0 -38 48 l-3 47 40 0 c23 0 41 -4 41 -10z m148 3
c-13 -3 -18 -15 -18 -44 0 -28 -4 -39 -15 -39 -11 0 -15 11 -15 39 0 29 -5 41
-17 44 -10 3 5 5 32 5 28 0 42 -2 33 -5z m52 -13 c0 -13 7 -20 20 -20 13 0 20
7 20 20 0 11 5 20 10 20 6 0 10 -22 10 -50 0 -27 -4 -50 -10 -50 -5 0 -10 9
-10 20 0 11 -2 20 -4 20 -2 0 -11 3 -20 6 -12 4 -16 0 -16 -15 0 -13 -6 -21
-16 -21 -12 0 -15 6 -10 23 3 12 6 32 6 45 0 12 5 22 10 22 6 0 10 -9 10 -20z
m143 13 c-41 -5 -45 -32 -5 -34 l27 -2 -27 -4 c-39 -6 -35 -31 5 -36 28 -3 26
-4 -10 -5 l-43 -2 0 45 0 45 43 -2 c36 -1 38 -2 10 -5z m160 0 c-41 -5 -45
-32 -5 -34 l27 -2 -27 -4 c-20 -3 -28 -10 -28 -24 0 -10 -4 -19 -10 -19 -5 0
-10 20 -10 45 l0 45 43 -2 c36 -1 38 -2 10 -5z m75 -33 c-3 -33 0 -40 14 -40
14 0 18 8 18 40 0 30 4 40 16 40 12 0 14 -9 12 -42 -3 -43 -3 -43 -45 -46
l-43 -3 0 45 c0 36 4 46 16 46 13 0 15 -8 12 -40z m150 33 c-13 -3 -18 -15
-18 -44 0 -21 -4 -39 -10 -39 -5 0 -10 16 -10 35 0 22 -6 38 -17 44 -14 8 -8
10 27 10 25 -1 37 -3 28 -6z m52 -33 c0 -33 3 -40 20 -40 17 0 20 7 20 40 0
22 5 40 10 40 6 0 10 -20 10 -45 l0 -45 -40 0 -40 0 0 45 c0 25 5 45 10 45 6
0 10 -18 10 -40z m172 10 c-1 -14 -3 -33 -3 -42 0 -22 -17 -24 -25 -3 -4 8
-12 15 -20 15 -8 0 -14 -7 -14 -15 0 -8 -4 -15 -10 -15 -5 0 -10 21 -10 46 l0
45 43 -3 c38 -3 42 -5 39 -28z m108 20 c0 -5 -14 -10 -31 -10 -17 0 -28 -4
-24 -10 3 -5 17 -10 31 -10 14 0 22 -4 19 -10 -3 -5 -17 -10 -31 -10 -14 0
-22 -4 -19 -10 3 -5 17 -10 31 -10 13 0 24 -4 24 -10 0 -11 -39 -13 -64 -4
-11 4 -16 19 -16 50 l0 44 40 0 c22 0 40 -4 40 -10z m195 -35 l0 -40 -40 0
c-36 0 -40 2 -43 28 -6 47 4 59 45 55 37 -3 38 -4 38 -43z m72 18 l22 -28 1
28 c0 15 5 27 10 27 6 0 10 -20 10 -45 0 -52 -17 -59 -42 -17 l-17 27 -1 -27
c0 -18 -5 -28 -15 -28 -11 0 -15 12 -15 45 0 53 14 58 47 18z m126 20 c-41 -5
-45 -32 -5 -34 l27 -2 -27 -4 c-39 -6 -35 -31 5 -36 28 -3 26 -4 -10 -5 l-43
-2 0 45 0 45 43 -2 c36 -1 38 -2 10 -5z m127 -32 c0 -36 3 -40 28 -44 22 -3
20 -4 -10 -6 l-38 -1 0 45 c0 25 5 45 10 45 6 0 10 -18 10 -39z m158 -8 c2
-26 -1 -43 -7 -43 -6 0 -11 5 -11 10 0 6 -9 10 -20 10 -11 0 -20 -7 -20 -15 0
-8 -7 -15 -15 -15 -11 0 -15 11 -15 43 0 53 5 59 50 55 34 -3 35 -5 38 -45z
m58 25 l6 -21 19 24 c23 31 37 17 15 -15 -9 -14 -16 -32 -16 -41 0 -27 -14
-15 -38 30 -17 35 -19 45 -8 45 8 0 18 -10 22 -22z m137 15 c-41 -5 -45 -32
-5 -34 l27 -2 -27 -4 c-39 -6 -35 -31 5 -36 21 -3 17 -4 -13 -3 l-45 1 -3 43
-3 42 48 -2 c36 -1 40 -2 16 -5z m132 -40 c0 -45 -10 -54 -30 -26 -13 18 -35
10 -35 -13 0 -8 -4 -14 -10 -14 -5 0 -10 23 -10 51 l0 50 43 -3 42 -3 0 -42z
m165 -3 c0 -27 -4 -50 -10 -50 -5 0 -10 7 -10 15 0 8 -9 15 -20 15 -11 0 -20
-7 -20 -15 0 -8 -4 -15 -10 -15 -5 0 -10 23 -10 50 l0 50 40 0 40 0 0 -50z
m105 40 c-3 -5 -13 -10 -21 -10 -10 0 -14 -12 -14 -40 0 -22 -4 -40 -10 -40
-5 0 -10 18 -10 40 0 29 -4 40 -15 40 -8 0 -15 5 -15 10 0 6 21 10 46 10 27 0
43 -4 39 -10z m155 -40 c0 -27 -4 -50 -10 -50 -5 0 -10 7 -10 15 0 8 -9 15
-20 15 -12 0 -20 -7 -20 -16 0 -30 -25 -7 -28 25 -5 51 3 61 48 61 l40 0 0
-50z m155 40 c-3 -5 -13 -10 -21 -10 -10 0 -14 -12 -14 -40 0 -22 -4 -40 -10
-40 -5 0 -10 18 -10 40 0 29 -4 40 -15 40 -8 0 -15 5 -15 10 0 6 21 10 46 10
27 0 43 -4 39 -10z m50 -40 c0 -39 -4 -50 -16 -50 -12 0 -15 11 -15 50 1 37 5
50 16 50 11 0 15 -12 15 -50z m235 40 c0 -5 -13 -10 -30 -10 -16 0 -30 -4 -30
-10 0 -5 11 -10 25 -10 14 0 25 -4 25 -10 0 -5 -11 -10 -25 -10 -14 0 -25 -4
-25 -10 0 -5 14 -10 30 -10 17 0 30 -4 30 -10 0 -14 -64 -12 -78 2 -7 7 -12
29 -12 50 l0 38 45 0 c25 0 45 -4 45 -10z m-1820 -80 c0 -11 -4 -20 -10 -20
-5 0 -10 2 -10 4 0 2 -3 11 -6 20 -4 11 -1 16 10 16 9 0 16 -8 16 -20z"/>
<path d="M660 935 l0 -85 55 0 55 0 0 85 0 85 -55 0 -55 0 0 -85z"/>
<path d="M970 985 l0 -35 60 0 60 0 0 35 0 35 -60 0 -60 0 0 -35z"/>
<path d="M1292 978 l3 -43 55 0 55 0 3 43 3 42 -61 0 -61 0 3 -42z"/>
<path d="M2940 985 l0 -35 60 0 60 0 0 35 0 35 -60 0 -60 0 0 -35z"/>
<path d="M3260 975 l0 -45 55 0 55 0 0 45 0 45 -55 0 -55 0 0 -45z"/>
<path d="M3570 985 l0 -35 60 0 60 0 0 35 0 35 -60 0 -60 0 0 -35z"/>
<path d="M760 550 c0 -5 6 -10 14 -10 8 0 18 5 21 10 3 6 -3 10 -14 10 -12 0
-21 -4 -21 -10z"/>
<path d="M760 510 c0 -5 6 -10 14 -10 8 0 18 5 21 10 3 6 -3 10 -14 10 -12 0
-21 -4 -21 -10z"/>
<path d="M1140 529 c0 -24 4 -30 18 -27 10 2 18 14 20 31 3 22 -1 27 -17 27
-17 0 -21 -6 -21 -31z"/>
<path d="M2370 555 c0 -8 9 -15 20 -15 11 0 20 7 20 15 0 8 -9 15 -20 15 -11
0 -20 -7 -20 -15z"/>
<path d="M2674 556 c-10 -27 1 -51 24 -54 21 -3 23 0 20 30 -3 35 -33 52 -44
24z"/>
<path d="M3160 551 c0 -15 6 -21 21 -21 25 0 22 33 -4 38 -12 2 -17 -3 -17
-17z"/>
<path d="M3498 563 c-27 -7 -21 -23 7 -23 14 0 25 4 25 9 0 13 -12 18 -32 14z"/>
<path d="M3650 545 c0 -8 9 -15 20 -15 11 0 20 7 20 15 0 8 -9 15 -20 15 -11
0 -20 -7 -20 -15z"/>
<path d="M3910 545 c0 -8 9 -15 20 -15 11 0 20 7 20 15 0 8 -9 15 -20 15 -11
0 -20 -7 -20 -15z"/>
</g>
</svg>
